<svg width="295" height="106" viewBox="0 0 295 106" fill="none" xmlns="http://www.w3.org/2000/svg">
<path d="M65.2297 42.7082C65.2297 45.3714 64.5276 47.8409 63.1233 50.1168C61.7675 52.3442 59.7338 54.1842 57.0221 55.6369C54.3589 57.0411 51.1873 57.8159 47.5072 57.9611V63.8444H42.8587V57.8885C37.726 57.4527 33.5859 55.9274 30.4385 53.3126C27.291 50.6494 25.6205 47.042 25.4268 42.4903H38.646C38.9365 45.3956 40.3408 47.2599 42.8587 48.0831V36.607C39.0818 35.6386 36.0554 34.6944 33.7796 33.7743C31.5522 32.8543 29.5911 31.3775 27.8963 29.3437C26.2015 27.31 25.3541 24.5257 25.3541 20.9909C25.3541 16.5845 26.9763 13.0497 30.2206 10.3865C33.5133 7.72331 37.726 6.22222 42.8587 5.88327V-4.93332e-06H47.5072V5.88327C52.5915 6.27065 56.6106 7.74752 59.5643 10.3139C62.518 12.8803 64.1644 16.4393 64.5033 20.9909H51.2115C50.921 18.3761 49.6862 16.6814 47.5072 15.9066V27.1647C51.5262 28.2784 54.6253 29.2711 56.8042 30.1427C58.9832 31.0143 60.9201 32.467 62.6149 34.5007C64.3581 36.486 65.2297 39.2218 65.2297 42.7082ZM38.5007 20.4099C38.5007 21.6204 38.8639 22.6373 39.5902 23.4605C40.365 24.2836 41.4545 25.01 42.8587 25.6395V15.5435C41.5029 15.7856 40.4376 16.3182 39.6629 17.1414C38.8881 17.9161 38.5007 19.0056 38.5007 20.4099ZM47.5072 48.301C48.9599 48.0588 50.0978 47.4778 50.921 46.5578C51.7926 45.6377 52.2284 44.4998 52.2284 43.144C52.2284 41.885 51.8168 40.8682 50.9936 40.0934C50.2188 39.2702 49.0567 38.5681 47.5072 37.9871V48.301ZM110.567 15.3256H87.9059V25.3489C88.8744 24.2836 90.2302 23.412 91.9734 22.7341C93.7166 22.0562 95.605 21.7173 97.6387 21.7173C101.27 21.7173 104.273 22.5404 106.645 24.1868C109.066 25.8331 110.834 27.9637 111.947 30.5785C113.061 33.1933 113.618 36.026 113.618 39.0766C113.618 44.7419 112.02 49.2452 108.824 52.5863C105.628 55.879 101.125 57.5253 95.3145 57.5253C91.4407 57.5253 88.0754 56.8716 85.2185 55.5643C82.3616 54.2084 80.1584 52.3442 78.6089 49.9715C77.0594 47.5988 76.212 44.863 76.0667 41.764H88.1965C88.487 43.2651 89.1891 44.524 90.3028 45.5409C91.4165 46.5093 92.9418 46.9936 94.8787 46.9936C97.1545 46.9936 98.8493 46.2672 99.963 44.8146C101.077 43.3619 101.634 41.425 101.634 39.0039C101.634 36.6312 101.052 34.8154 99.8904 33.5564C98.7282 32.2975 97.0335 31.668 94.8061 31.668C93.1597 31.668 91.8039 32.0796 90.7386 32.9028C89.6733 33.6775 88.9712 34.7186 88.6323 36.026H76.6478V4.43061H110.567V15.3256ZM120.474 30.288C120.474 21.9594 122.072 15.3982 125.268 10.6044C128.512 5.81064 133.717 3.41375 140.884 3.41375C148.05 3.41375 153.231 5.81064 156.427 10.6044C159.671 15.3982 161.294 21.9594 161.294 30.288C161.294 38.7134 159.671 45.323 156.427 50.1168C153.231 54.9106 148.05 57.3074 140.884 57.3074C133.717 57.3074 128.512 54.9106 125.268 50.1168C122.072 45.323 120.474 38.7134 120.474 30.288ZM149.091 30.288C149.091 25.3973 148.559 21.6446 147.493 19.0298C146.428 16.3666 144.225 15.035 140.884 15.035C137.543 15.035 135.339 16.3666 134.274 19.0298C133.209 21.6446 132.676 25.3973 132.676 30.288C132.676 33.5807 132.87 36.3165 133.257 38.4955C133.645 40.6261 134.419 42.3693 135.582 43.7251C136.792 45.0325 138.559 45.6862 140.884 45.6862C143.208 45.6862 144.951 45.0325 146.113 43.7251C147.324 42.3693 148.123 40.6261 148.51 38.4955C148.898 36.3165 149.091 33.5807 149.091 30.288ZM199.959 31.3775C202.913 32.0069 205.286 33.4838 207.077 35.8081C208.869 38.0839 209.765 40.6987 209.765 43.6524C209.765 47.9136 208.264 51.3031 205.262 53.8211C202.308 56.2906 198.168 57.5253 192.841 57.5253H169.09V6.53697H192.042C197.224 6.53697 201.267 7.72331 204.172 10.096C207.126 12.4687 208.603 15.6887 208.603 19.7562C208.603 22.7583 207.804 25.2521 206.206 27.2374C204.656 29.2227 202.574 30.6027 199.959 31.3775ZM181.511 27.1647H189.645C191.679 27.1647 193.229 26.7289 194.294 25.8573C195.408 24.9373 195.965 23.6057 195.965 21.8625C195.965 20.1193 195.408 18.7877 194.294 17.8677C193.229 16.9477 191.679 16.4877 189.645 16.4877H181.511V27.1647ZM190.662 47.502C192.744 47.502 194.342 47.042 195.456 46.122C196.618 45.1535 197.199 43.7735 197.199 41.9819C197.199 40.1903 196.594 38.786 195.383 37.7692C194.221 36.7523 192.599 36.2439 190.517 36.2439H181.511V47.502H190.662ZM253.793 37.6965H241.155V50.6252H229.389V37.6965H216.751V26.5837H229.389V13.5824H241.155V26.5837H253.793V37.6965Z" fill="url(#paint0_linear_7_157)"/>
<path d="M18.2036 82.0035V86.5963H11.9681V105.538H6.23545V86.5963H-6.52562e-05V82.0035H18.2036ZM29.5958 105.806C27.7632 105.806 26.1093 105.415 24.6343 104.632C23.1815 103.85 22.0305 102.733 21.1813 101.28C20.3543 99.8272 19.9409 98.1287 19.9409 96.1843C19.9409 94.2622 20.3655 92.5748 21.2148 91.1221C22.0641 89.647 23.2262 88.5184 24.7013 87.7362C26.1764 86.9539 27.8302 86.5628 29.6629 86.5628C31.4956 86.5628 33.1494 86.9539 34.6245 87.7362C36.0996 88.5184 37.2617 89.647 38.111 91.1221C38.9603 92.5748 39.3849 94.2622 39.3849 96.1843C39.3849 98.1063 38.9491 99.8049 38.0775 101.28C37.2282 102.733 36.0549 103.85 34.5574 104.632C33.0824 105.415 31.4285 105.806 29.5958 105.806ZM29.5958 100.844C30.691 100.844 31.6185 100.442 32.3784 99.6373C33.1606 98.8327 33.5517 97.6817 33.5517 96.1843C33.5517 94.6869 33.1718 93.5359 32.4119 92.7313C31.6743 91.9267 30.758 91.5244 29.6629 91.5244C28.5454 91.5244 27.6179 91.9267 26.8804 92.7313C26.1428 93.5135 25.7741 94.6645 25.7741 96.1843C25.7741 97.6817 26.1317 98.8327 26.8469 99.6373C27.5844 100.442 28.5007 100.844 29.5958 100.844ZM53.858 105.538L48.1589 97.6929V105.538H42.4262V80.7296H48.1589V94.441L53.8245 86.831H60.8981L53.1205 96.2178L60.9651 105.538H53.858ZM80.7835 95.8826C80.7835 96.4189 80.75 96.9777 80.6829 97.5588H67.709C67.7984 98.7209 68.1672 99.6149 68.8153 100.241C69.4858 100.844 70.3016 101.146 71.2626 101.146C72.693 101.146 73.6875 100.542 74.2462 99.3356H80.3477C80.0348 100.565 79.4649 101.671 78.6379 102.654C77.8333 103.638 76.8164 104.409 75.5872 104.968C74.358 105.526 72.9835 105.806 71.4637 105.806C69.6311 105.806 67.9996 105.415 66.5692 104.632C65.1388 103.85 64.0213 102.733 63.2168 101.28C62.4122 99.8272 62.0099 98.1287 62.0099 96.1843C62.0099 94.2399 62.401 92.5413 63.1832 91.0886C63.9878 89.6359 65.1053 88.5184 66.5357 87.7362C67.966 86.9539 69.6087 86.5628 71.4637 86.5628C73.274 86.5628 74.8832 86.9427 76.2912 87.7026C77.6992 88.4625 78.7944 89.5465 79.5766 90.9545C80.3812 92.3625 80.7835 94.0052 80.7835 95.8826ZM74.9167 94.374C74.9167 93.3906 74.5815 92.6083 73.911 92.0273C73.2405 91.4462 72.4024 91.1556 71.3967 91.1556C70.4357 91.1556 69.6199 91.435 68.9494 91.9937C68.3013 92.5525 67.899 93.3459 67.7425 94.374H74.9167ZM95.206 86.6299C97.3962 86.6299 99.1395 87.345 100.436 88.7754C101.754 90.1834 102.414 92.1278 102.414 94.6086V105.538H96.7146V95.3797C96.7146 94.1281 96.3905 93.1559 95.7424 92.4631C95.0942 91.7702 94.2226 91.4238 93.1275 91.4238C92.0324 91.4238 91.1607 91.7702 90.5126 92.4631C89.8645 93.1559 89.5404 94.1281 89.5404 95.3797V105.538H83.8077V86.831H89.5404V89.3118C90.1215 88.4849 90.9037 87.8367 91.8871 87.3674C92.8705 86.8757 93.9768 86.6299 95.206 86.6299ZM109.28 84.8866C108.275 84.8866 107.448 84.596 106.8 84.015C106.174 83.4115 105.861 82.674 105.861 81.8024C105.861 80.9084 106.174 80.1708 106.8 79.5898C107.448 78.9863 108.275 78.6846 109.28 78.6846C110.264 78.6846 111.068 78.9863 111.694 79.5898C112.342 80.1708 112.666 80.9084 112.666 81.8024C112.666 82.674 112.342 83.4115 111.694 84.015C111.068 84.596 110.264 84.8866 109.28 84.8866ZM112.13 86.831V105.538H106.397V86.831H112.13ZM121.648 100.811H129.761V105.538H115.245V100.978L123.023 91.5579H115.312V86.831H129.594V91.3903L121.648 100.811ZM150.549 95.8826C150.549 96.4189 150.516 96.9777 150.449 97.5588H137.475C137.564 98.7209 137.933 99.6149 138.581 100.241C139.252 100.844 140.067 101.146 141.028 101.146C142.459 101.146 143.453 100.542 144.012 99.3356H150.114C149.801 100.565 149.231 101.671 148.404 102.654C147.599 103.638 146.582 104.409 145.353 104.968C144.124 105.526 142.749 105.806 141.23 105.806C139.397 105.806 137.765 105.415 136.335 104.632C134.905 103.85 133.787 102.733 132.983 101.28C132.178 99.8272 131.776 98.1287 131.776 96.1843C131.776 94.2399 132.167 92.5413 132.949 91.0886C133.754 89.6359 134.871 88.5184 136.302 87.7362C137.732 86.9539 139.375 86.5628 141.23 86.5628C143.04 86.5628 144.649 86.9427 146.057 87.7026C147.465 88.4625 148.56 89.5465 149.342 90.9545C150.147 92.3625 150.549 94.0052 150.549 95.8826ZM144.683 94.374C144.683 93.3906 144.347 92.6083 143.677 92.0273C143.006 91.4462 142.168 91.1556 141.163 91.1556C140.201 91.1556 139.386 91.435 138.715 91.9937C138.067 92.5525 137.665 93.3459 137.508 94.374H144.683ZM152.434 96.1507C152.434 94.2287 152.791 92.5413 153.507 91.0886C154.244 89.6359 155.239 88.5184 156.49 87.7362C157.742 86.9539 159.139 86.5628 160.681 86.5628C161.91 86.5628 163.027 86.8198 164.033 87.3339C165.061 87.8479 165.866 88.5407 166.447 89.4124V80.7296H172.18V105.538H166.447V102.856C165.911 103.75 165.139 104.465 164.134 105.001C163.15 105.538 161.999 105.806 160.681 105.806C159.139 105.806 157.742 105.415 156.49 104.632C155.239 103.828 154.244 102.699 153.507 101.246C152.791 99.7714 152.434 98.0728 152.434 96.1507ZM166.447 96.1843C166.447 94.7539 166.045 93.6252 165.24 92.7983C164.458 91.9714 163.497 91.5579 162.357 91.5579C161.217 91.5579 160.245 91.9714 159.44 92.7983C158.658 93.6029 158.267 94.7204 158.267 96.1507C158.267 97.5811 158.658 98.7209 159.44 99.5702C160.245 100.397 161.217 100.811 162.357 100.811C163.497 100.811 164.458 100.397 165.24 99.5702C166.045 98.7433 166.447 97.6146 166.447 96.1843ZM198.081 101.381H189.298L187.89 105.538H181.889L190.404 82.0035H197.042L205.557 105.538H199.489L198.081 101.381ZM196.606 96.9553L193.69 88.3396L190.806 96.9553H196.606ZM215.759 105.806C214.127 105.806 212.675 105.526 211.401 104.968C210.127 104.409 209.121 103.649 208.383 102.688C207.646 101.705 207.232 100.609 207.143 99.4026H212.809C212.876 100.051 213.177 100.576 213.714 100.978C214.25 101.381 214.909 101.582 215.692 101.582C216.407 101.582 216.954 101.448 217.334 101.179C217.737 100.889 217.938 100.52 217.938 100.073C217.938 99.5367 217.658 99.1456 217.1 98.8997C216.541 98.6315 215.636 98.341 214.384 98.0281C213.043 97.7152 211.926 97.3911 211.032 97.0559C210.138 96.6983 209.367 96.1507 208.719 95.4132C208.071 94.6533 207.746 93.6364 207.746 92.3625C207.746 91.2897 208.037 90.3175 208.618 89.4459C209.222 88.5519 210.093 87.8479 211.233 87.3339C212.395 86.8198 213.77 86.5628 215.356 86.5628C217.703 86.5628 219.547 87.1439 220.888 88.3061C222.251 89.4682 223.034 91.0104 223.235 92.9324H217.938C217.848 92.2843 217.558 91.7702 217.066 91.3903C216.597 91.0104 215.971 90.8204 215.189 90.8204C214.518 90.8204 214.004 90.9545 213.647 91.2227C213.289 91.4685 213.11 91.8149 213.11 92.2619C213.11 92.7983 213.39 93.2006 213.948 93.4688C214.53 93.737 215.423 94.0052 216.63 94.2734C218.016 94.631 219.145 94.9886 220.016 95.3462C220.888 95.6814 221.648 96.2401 222.296 97.0224C222.966 97.7823 223.313 98.8103 223.335 100.107C223.335 101.202 223.022 102.185 222.397 103.057C221.793 103.906 220.91 104.577 219.748 105.068C218.608 105.56 217.279 105.806 215.759 105.806ZM234.452 105.806C232.821 105.806 231.368 105.526 230.094 104.968C228.82 104.409 227.815 103.649 227.077 102.688C226.34 101.705 225.926 100.609 225.837 99.4026H231.502C231.569 100.051 231.871 100.576 232.407 100.978C232.944 101.381 233.603 101.582 234.385 101.582C235.101 101.582 235.648 101.448 236.028 101.179C236.43 100.889 236.632 100.52 236.632 100.073C236.632 99.5367 236.352 99.1456 235.793 98.8997C235.235 98.6315 234.33 98.341 233.078 98.0281C231.737 97.7152 230.62 97.3911 229.726 97.0559C228.832 96.6983 228.06 96.1507 227.412 95.4132C226.764 94.6533 226.44 93.6364 226.44 92.3625C226.44 91.2897 226.731 90.3175 227.312 89.4459C227.915 88.5519 228.787 87.8479 229.927 87.3339C231.089 86.8198 232.463 86.5628 234.05 86.5628C236.397 86.5628 238.241 87.1439 239.582 88.3061C240.945 89.4682 241.727 91.0104 241.928 92.9324H236.632C236.542 92.2843 236.252 91.7702 235.76 91.3903C235.291 91.0104 234.665 90.8204 233.883 90.8204C233.212 90.8204 232.698 90.9545 232.34 91.2227C231.983 91.4685 231.804 91.8149 231.804 92.2619C231.804 92.7983 232.083 93.2006 232.642 93.4688C233.223 93.737 234.117 94.0052 235.324 94.2734C236.71 94.631 237.838 94.9886 238.71 95.3462C239.582 95.6814 240.342 96.2401 240.99 97.0224C241.66 97.7823 242.007 98.8103 242.029 100.107C242.029 101.202 241.716 102.185 241.09 103.057C240.487 103.906 239.604 104.577 238.442 105.068C237.302 105.56 235.972 105.806 234.452 105.806ZM263.17 95.8826C263.17 96.4189 263.136 96.9777 263.069 97.5588H250.095C250.185 98.7209 250.554 99.6149 251.202 100.241C251.872 100.844 252.688 101.146 253.649 101.146C255.079 101.146 256.074 100.542 256.633 99.3356H262.734C262.421 100.565 261.851 101.671 261.024 102.654C260.22 103.638 259.203 104.409 257.974 104.968C256.744 105.526 255.37 105.806 253.85 105.806C252.018 105.806 250.386 105.415 248.956 104.632C247.525 103.85 246.408 102.733 245.603 101.28C244.799 99.8272 244.396 98.1287 244.396 96.1843C244.396 94.2399 244.787 92.5413 245.57 91.0886C246.374 89.6359 247.492 88.5184 248.922 87.7362C250.352 86.9539 251.995 86.5628 253.85 86.5628C255.661 86.5628 257.27 86.9427 258.678 87.7026C260.086 88.4625 261.181 89.5465 261.963 90.9545C262.768 92.3625 263.17 94.0052 263.17 95.8826ZM257.303 94.374C257.303 93.3906 256.968 92.6083 256.297 92.0273C255.627 91.4462 254.789 91.1556 253.783 91.1556C252.822 91.1556 252.006 91.435 251.336 91.9937C250.688 92.5525 250.285 93.3459 250.129 94.374H257.303ZM276.62 100.677V105.538H273.704C271.625 105.538 270.005 105.035 268.843 104.029C267.68 103.001 267.099 101.336 267.099 99.0338V91.5914H264.82V86.831H267.099V82.2717H272.832V86.831H276.587V91.5914H272.832V99.1009C272.832 99.6596 272.966 100.062 273.234 100.308C273.502 100.554 273.949 100.677 274.575 100.677H276.62ZM287.423 105.806C285.792 105.806 284.339 105.526 283.065 104.968C281.791 104.409 280.786 103.649 280.048 102.688C279.311 101.705 278.897 100.609 278.808 99.4026H284.473C284.54 100.051 284.842 100.576 285.378 100.978C285.915 101.381 286.574 101.582 287.356 101.582C288.072 101.582 288.619 101.448 288.999 101.179C289.401 100.889 289.602 100.52 289.602 100.073C289.602 99.5367 289.323 99.1456 288.764 98.8997C288.206 98.6315 287.3 98.341 286.049 98.0281C284.708 97.7152 283.59 97.3911 282.696 97.0559C281.803 96.6983 281.031 96.1507 280.383 95.4132C279.735 94.6533 279.411 93.6364 279.411 92.3625C279.411 91.2897 279.702 90.3175 280.283 89.4459C280.886 88.5519 281.758 87.8479 282.898 87.3339C284.06 86.8198 285.434 86.5628 287.021 86.5628C289.368 86.5628 291.212 87.1439 292.553 88.3061C293.916 89.4682 294.698 91.0104 294.899 92.9324H289.602C289.513 92.2843 289.223 91.7702 288.731 91.3903C288.262 91.0104 287.636 90.8204 286.854 90.8204C286.183 90.8204 285.669 90.9545 285.311 91.2227C284.954 91.4685 284.775 91.8149 284.775 92.2619C284.775 92.7983 285.054 93.2006 285.613 93.4688C286.194 93.737 287.088 94.0052 288.295 94.2734C289.681 94.631 290.809 94.9886 291.681 95.3462C292.553 95.6814 293.313 96.2401 293.961 97.0224C294.631 97.7823 294.978 98.8103 295 100.107C295 101.202 294.687 102.185 294.061 103.057C293.458 103.906 292.575 104.577 291.413 105.068C290.273 105.56 288.943 105.806 287.423 105.806Z" fill="white"/>
<defs>
<linearGradient id="paint0_linear_7_157" x1="317.894" y1="56.8143" x2="-22.2703" y2="56.8143" gradientUnits="userSpaceOnUse">
<stop offset="0.26" stop-color="#56C690"/>
<stop offset="1" stop-color="white"/>
</linearGradient>
</defs>
</svg>
