<svg width="327" height="18" viewBox="0 0 327 18" fill="none" xmlns="http://www.w3.org/2000/svg">
<path d="M-9.50013e-06 11.5798C1.35794 10.4891 2.42185 9.59629 3.19172 8.90127C3.96158 8.19556 4.60848 7.46312 5.13241 6.70395C5.66704 5.93409 5.93436 5.18027 5.93436 4.44248C5.93436 3.74746 5.76327 3.20214 5.42111 2.80652C5.08964 2.4002 4.54967 2.19704 3.80119 2.19704C3.0741 2.19704 2.50739 2.42693 2.10108 2.88671C1.70545 3.3358 1.4916 3.93993 1.45952 4.6991H0.0481069C0.0908771 3.50153 0.454424 2.57663 1.13875 1.92438C1.82307 1.27214 2.70521 0.946015 3.78515 0.946015C4.88649 0.946015 5.75793 1.25075 6.39948 1.86023C7.05173 2.4697 7.37785 3.30907 7.37785 4.37832C7.37785 5.26581 7.11054 6.1319 6.57591 6.97661C6.05197 7.81063 5.45319 8.54842 4.77956 9.18997C4.10593 9.82083 3.24518 10.5586 2.19731 11.4033H7.71466V12.6223H-9.50013e-06V11.5798ZM9.55223 6.83226C9.55223 4.99315 9.85162 3.56034 10.4504 2.53386C11.0492 1.49668 12.0971 0.978094 13.594 0.978094C15.0803 0.978094 16.1228 1.49668 16.7216 2.53386C17.3204 3.56034 17.6198 4.99315 17.6198 6.83226C17.6198 8.70346 17.3204 10.1576 16.7216 11.1948C16.1228 12.232 15.0803 12.7506 13.594 12.7506C12.0971 12.7506 11.0492 12.232 10.4504 11.1948C9.85162 10.1576 9.55223 8.70346 9.55223 6.83226ZM16.1763 6.83226C16.1763 5.90201 16.1121 5.11611 15.9838 4.47456C15.8662 3.82231 15.6149 3.29838 15.23 2.90275C14.8557 2.50713 14.3104 2.30932 13.594 2.30932C12.8669 2.30932 12.3109 2.50713 11.926 2.90275C11.5517 3.29838 11.3005 3.82231 11.1722 4.47456C11.0545 5.11611 10.9957 5.90201 10.9957 6.83226C10.9957 7.79459 11.0545 8.60188 11.1722 9.25413C11.3005 9.90637 11.5517 10.4303 11.926 10.8259C12.3109 11.2216 12.8669 11.4194 13.594 11.4194C14.3104 11.4194 14.8557 11.2216 15.23 10.8259C15.6149 10.4303 15.8662 9.90637 15.9838 9.25413C16.1121 8.60188 16.1763 7.79459 16.1763 6.83226ZM19.5974 11.5798C20.9554 10.4891 22.0193 9.59629 22.7892 8.90127C23.559 8.19556 24.2059 7.46312 24.7299 6.70395C25.2645 5.93409 25.5318 5.18027 25.5318 4.44248C25.5318 3.74746 25.3607 3.20214 25.0186 2.80652C24.6871 2.4002 24.1471 2.19704 23.3986 2.19704C22.6715 2.19704 22.1048 2.42693 21.6985 2.88671C21.3029 3.3358 21.089 3.93993 21.057 4.6991H19.6455C19.6883 3.50153 20.0519 2.57663 20.7362 1.92438C21.4205 1.27214 22.3026 0.946015 23.3826 0.946015C24.4839 0.946015 25.3554 1.25075 25.9969 1.86023C26.6492 2.4697 26.9753 3.30907 26.9753 4.37832C26.9753 5.26581 26.708 6.1319 26.1733 6.97661C25.6494 7.81063 25.0506 8.54842 24.377 9.18997C23.7034 9.82083 22.8426 10.5586 21.7947 11.4033H27.3121V12.6223H19.5974V11.5798ZM36.5436 2.42159H30.9139V6.07844C31.1599 5.73628 31.5234 5.45827 32.0046 5.24442C32.4857 5.01988 33.0043 4.90761 33.5603 4.90761C34.4478 4.90761 35.1696 5.09472 35.7256 5.46896C36.2816 5.83251 36.6772 6.30833 36.9125 6.89642C37.1584 7.47382 37.2814 8.08864 37.2814 8.74088C37.2814 9.51075 37.137 10.2004 36.8483 10.8099C36.5596 11.4194 36.1159 11.9005 35.5171 12.2534C34.929 12.6062 34.1966 12.7827 33.3198 12.7827C32.197 12.7827 31.2882 12.494 30.5932 11.9166C29.8981 11.3392 29.4758 10.5693 29.3261 9.60698H30.7536C30.8926 10.2165 31.1866 10.6923 31.6357 11.0344C32.0848 11.3766 32.6515 11.5477 33.3358 11.5477C34.1805 11.5477 34.8167 11.2964 35.2444 10.7939C35.6721 10.2806 35.886 9.60698 35.886 8.77296C35.886 7.93894 35.6721 7.29739 35.2444 6.8483C34.8167 6.38852 34.1859 6.15863 33.3518 6.15863C32.7851 6.15863 32.2879 6.29764 31.8602 6.57564C31.4432 6.84296 31.1385 7.21185 30.946 7.68232H29.5667V1.13848H36.5436V2.42159ZM44.7443 1.45926C45.8242 1.45926 46.7866 1.70519 47.6313 2.19704C48.476 2.67821 49.1282 3.35184 49.588 4.21794C50.0585 5.07334 50.2937 6.05171 50.2937 7.15304C50.2937 8.25437 50.0585 9.23809 49.588 10.1042C49.1282 10.9596 48.476 11.6332 47.6313 12.1251C46.7866 12.6062 45.8242 12.8468 44.7443 12.8468C43.6537 12.8468 42.686 12.6062 41.8413 12.1251C40.9966 11.6332 40.339 10.9596 39.8685 10.1042C39.398 9.23809 39.1628 8.25437 39.1628 7.15304C39.1628 6.05171 39.398 5.07334 39.8685 4.21794C40.339 3.35184 40.9966 2.67821 41.8413 2.19704C42.686 1.70519 43.6537 1.45926 44.7443 1.45926ZM44.7443 2.10081C43.7499 2.10081 42.8838 2.31466 42.146 2.74236C41.4082 3.15937 40.8415 3.74746 40.4459 4.50663C40.0503 5.26581 39.8525 6.14794 39.8525 7.15304C39.8525 8.14745 40.0503 9.02958 40.4459 9.79945C40.8415 10.5586 41.4082 11.1521 42.146 11.5798C42.8838 12.0075 43.7499 12.2213 44.7443 12.2213C45.728 12.2213 46.5834 12.0075 47.3105 11.5798C48.0483 11.1521 48.615 10.5586 49.0106 9.79945C49.4063 9.02958 49.6041 8.14745 49.6041 7.15304C49.6041 6.14794 49.4063 5.26581 49.0106 4.50663C48.615 3.74746 48.0483 3.15937 47.3105 2.74236C46.5834 2.31466 45.728 2.10081 44.7443 2.10081ZM44.7122 3.43203C44.0707 3.43203 43.4826 3.58173 42.948 3.88112C42.424 4.18051 42.007 4.61356 41.6969 5.18026C41.3868 5.73628 41.2318 6.38852 41.2318 7.137C41.2318 7.88548 41.3868 8.54307 41.6969 9.10978C42.007 9.66579 42.424 10.0988 42.948 10.4089C43.4826 10.7083 44.0707 10.858 44.7122 10.858C45.5142 10.858 46.2092 10.6442 46.7973 10.2165C47.3854 9.77806 47.7863 9.19532 48.0002 8.46822H46.6529C46.3321 9.35571 45.6852 9.79945 44.7122 9.79945C44.0707 9.79945 43.5467 9.56956 43.1404 9.10978C42.7341 8.65 42.5309 7.99775 42.5309 7.15304C42.5309 6.29764 42.7341 5.64004 43.1404 5.18026C43.5467 4.72049 44.0707 4.4906 44.7122 4.4906C45.1827 4.4906 45.589 4.60821 45.9312 4.84345C46.2733 5.06799 46.5139 5.39412 46.6529 5.82182H48.0002C47.797 5.06265 47.4014 4.47456 46.8133 4.05755C46.2252 3.64054 45.5249 3.43203 44.7122 3.43203ZM169.278 14.4507H167.818V-0.000274369H169.278V14.4507ZM183.302 10.2646H178.426L177.528 12.7506H175.988L180.03 1.63569H181.714L185.74 12.7506H184.2L183.302 10.2646ZM182.885 9.0777L180.864 3.43203L178.843 9.0777H182.885ZM189.111 0.881861V12.7506H187.651V0.881861H189.111ZM193.208 0.881861V12.7506H191.749V0.881861H193.208ZM206.159 12.7506L203.496 8.17952H201.732V12.7506H200.273V1.57153H203.881C204.726 1.57153 205.437 1.71588 206.015 2.00458C206.603 2.29328 207.041 2.68356 207.33 3.17541C207.618 3.66727 207.763 4.22863 207.763 4.85949C207.763 5.62935 207.538 6.30833 207.089 6.89642C206.651 7.48451 205.988 7.87479 205.1 8.06725L207.907 12.7506H206.159ZM201.732 7.00869H203.881C204.673 7.00869 205.266 6.81623 205.662 6.43129C206.057 6.03567 206.255 5.51173 206.255 4.85949C206.255 4.19655 206.057 3.68331 205.662 3.31976C205.277 2.95622 204.683 2.77444 203.881 2.77444H201.732V7.00869ZM210.935 2.53386C210.657 2.53386 210.422 2.43763 210.229 2.24516C210.037 2.05269 209.94 1.81746 209.94 1.53945C209.94 1.26145 210.037 1.02621 210.229 0.833744C210.422 0.641278 210.657 0.545045 210.935 0.545045C211.202 0.545045 211.427 0.641278 211.608 0.833744C211.801 1.02621 211.897 1.26145 211.897 1.53945C211.897 1.81746 211.801 2.05269 211.608 2.24516C211.427 2.43763 211.202 2.53386 210.935 2.53386ZM211.641 3.96131V12.7506H210.181V3.96131H211.641ZM217.903 3.81696C218.662 3.81696 219.325 3.9827 219.892 4.31417C220.469 4.64564 220.897 5.06265 221.175 5.5652V3.96131H222.651V12.9431C222.651 13.745 222.48 14.4561 222.137 15.0762C221.795 15.7071 221.303 16.1989 220.662 16.5518C220.031 16.9046 219.293 17.0811 218.448 17.0811C217.294 17.0811 216.331 16.8084 215.562 16.2631C214.792 15.7178 214.337 14.9746 214.198 14.0337H215.642C215.802 14.5683 216.134 14.996 216.636 15.3168C217.139 15.6483 217.743 15.814 218.448 15.814C219.25 15.814 219.903 15.5627 220.405 15.0602C220.918 14.5576 221.175 13.8519 221.175 12.9431V11.0986C220.886 11.6118 220.459 12.0395 219.892 12.3817C219.325 12.7239 218.662 12.8949 217.903 12.8949C217.123 12.8949 216.412 12.7025 215.77 12.3175C215.139 11.9326 214.642 11.3926 214.278 10.6976C213.915 10.0026 213.733 9.21136 213.733 8.32387C213.733 7.4257 213.915 6.6398 214.278 5.96617C214.642 5.28184 215.139 4.75256 215.77 4.37832C216.412 4.00408 217.123 3.81696 217.903 3.81696ZM221.175 8.33991C221.175 7.67698 221.041 7.09958 220.774 6.60772C220.507 6.11586 220.143 5.74162 219.683 5.485C219.234 5.21769 218.737 5.08403 218.192 5.08403C217.647 5.08403 217.149 5.21234 216.7 5.46896C216.251 5.72559 215.893 6.09982 215.626 6.59168C215.358 7.08354 215.225 7.66094 215.225 8.32387C215.225 8.9975 215.358 9.58559 215.626 10.0881C215.893 10.58 216.251 10.9596 216.7 11.2269C217.149 11.4835 217.647 11.6118 218.192 11.6118C218.737 11.6118 219.234 11.4835 219.683 11.2269C220.143 10.9596 220.507 10.58 220.774 10.0881C221.041 9.58559 221.175 9.00285 221.175 8.33991ZM229.63 3.80093C230.293 3.80093 230.892 3.94528 231.426 4.23397C231.961 4.51198 232.378 4.93434 232.677 5.50104C232.988 6.06775 233.143 6.75742 233.143 7.57005V12.7506H231.699V7.77855C231.699 6.90177 231.48 6.23348 231.041 5.7737C230.603 5.30323 230.004 5.06799 229.245 5.06799C228.475 5.06799 227.86 5.30858 227.401 5.78974C226.952 6.2709 226.727 6.97127 226.727 7.89083V12.7506H225.267V0.881861H226.727V5.21234C227.016 4.76326 227.411 4.41575 227.914 4.16982C228.427 3.92389 228.999 3.80093 229.63 3.80093ZM237.457 5.16423V10.3448C237.457 10.7725 237.548 11.0772 237.73 11.259C237.912 11.4301 238.227 11.5156 238.676 11.5156H239.751V12.7506H238.436C237.623 12.7506 237.014 12.5635 236.607 12.1892C236.201 11.815 235.998 11.2002 235.998 10.3448V5.16423H234.859V3.96131H235.998V1.74796H237.457V3.96131H239.751V5.16423H237.457ZM244.781 12.8949C244.108 12.8949 243.503 12.7827 242.969 12.5581C242.434 12.3229 242.012 12.0021 241.702 11.5958C241.392 11.1788 241.221 10.703 241.189 10.1683H242.696C242.739 10.6067 242.942 10.9649 243.306 11.2429C243.68 11.5209 244.166 11.6599 244.765 11.6599C245.321 11.6599 245.76 11.537 246.08 11.2911C246.401 11.0451 246.562 10.735 246.562 10.3608C246.562 9.97587 246.39 9.69252 246.048 9.51075C245.706 9.31828 245.177 9.13116 244.46 8.94939C243.808 8.77831 243.274 8.60723 242.857 8.43615C242.45 8.25437 242.097 7.99241 241.798 7.65024C241.509 7.29739 241.365 6.83761 241.365 6.27091C241.365 5.82182 241.499 5.41015 241.766 5.03592C242.033 4.66168 242.413 4.36763 242.905 4.15378C243.397 3.92924 243.958 3.81696 244.589 3.81696C245.562 3.81696 246.348 4.06289 246.946 4.55475C247.545 5.04661 247.866 5.72024 247.909 6.57564H246.449C246.417 6.11586 246.23 5.74697 245.888 5.46896C245.556 5.19096 245.107 5.05195 244.541 5.05195C244.017 5.05195 243.6 5.16423 243.29 5.38877C242.98 5.61331 242.824 5.90736 242.824 6.27091C242.824 6.5596 242.915 6.80019 243.097 6.99265C243.29 7.17443 243.525 7.32412 243.803 7.44174C244.092 7.54866 244.487 7.67163 244.99 7.81063C245.621 7.98171 246.134 8.15279 246.529 8.32387C246.925 8.48426 247.262 8.73019 247.54 9.06166C247.829 9.39313 247.978 9.82618 247.989 10.3608C247.989 10.842 247.855 11.275 247.588 11.6599C247.321 12.0449 246.941 12.3496 246.449 12.5742C245.968 12.788 245.412 12.8949 244.781 12.8949ZM260.512 12.7506L257.85 8.17952H256.086V12.7506H254.626V1.57153H258.235C259.08 1.57153 259.791 1.71588 260.368 2.00458C260.956 2.29328 261.394 2.68356 261.683 3.17541C261.972 3.66727 262.116 4.22863 262.116 4.85949C262.116 5.62935 261.892 6.30833 261.443 6.89642C261.004 7.48451 260.341 7.87479 259.454 8.06725L262.261 12.7506H260.512ZM256.086 7.00869H258.235C259.026 7.00869 259.619 6.81623 260.015 6.43129C260.411 6.03567 260.609 5.51173 260.609 4.85949C260.609 4.19655 260.411 3.68331 260.015 3.31976C259.63 2.95622 259.037 2.77444 258.235 2.77444H256.086V7.00869ZM272.554 8.01914C272.554 8.29714 272.538 8.59119 272.506 8.90127H265.481C265.534 9.76737 265.828 10.4463 266.363 10.9382C266.908 11.4194 267.566 11.6599 268.336 11.6599C268.966 11.6599 269.49 11.5156 269.907 11.2269C270.335 10.9275 270.635 10.5319 270.806 10.04H272.377C272.142 10.8847 271.672 11.5744 270.966 12.109C270.26 12.633 269.383 12.8949 268.336 12.8949C267.502 12.8949 266.753 12.7078 266.09 12.3336C265.438 11.9593 264.925 11.4301 264.55 10.7457C264.176 10.0507 263.989 9.24878 263.989 8.33991C263.989 7.43105 264.171 6.63445 264.534 5.95013C264.898 5.26581 265.406 4.74187 266.058 4.37832C266.721 4.00408 267.48 3.81696 268.336 3.81696C269.17 3.81696 269.907 3.99874 270.549 4.36229C271.191 4.72583 271.682 5.22838 272.025 5.86993C272.377 6.50079 272.554 7.2172 272.554 8.01914ZM271.046 7.7144C271.046 7.15839 270.923 6.68257 270.677 6.28694C270.431 5.88063 270.095 5.57589 269.667 5.37273C269.25 5.15888 268.785 5.05195 268.271 5.05195C267.534 5.05195 266.903 5.28719 266.379 5.75766C265.866 6.22813 265.572 6.88038 265.497 7.7144H271.046ZM277.742 12.8949C277.069 12.8949 276.464 12.7827 275.93 12.5581C275.395 12.3229 274.973 12.0021 274.663 11.5958C274.353 11.1788 274.182 10.703 274.15 10.1683H275.657C275.7 10.6067 275.903 10.9649 276.267 11.2429C276.641 11.5209 277.127 11.6599 277.726 11.6599C278.282 11.6599 278.721 11.537 279.041 11.2911C279.362 11.0451 279.523 10.735 279.523 10.3608C279.523 9.97587 279.351 9.69252 279.009 9.51075C278.667 9.31828 278.138 9.13116 277.421 8.94939C276.769 8.77831 276.235 8.60723 275.818 8.43615C275.411 8.25437 275.058 7.99241 274.759 7.65024C274.47 7.29739 274.326 6.83761 274.326 6.27091C274.326 5.82182 274.46 5.41015 274.727 5.03592C274.994 4.66168 275.374 4.36763 275.866 4.15378C276.358 3.92924 276.919 3.81696 277.55 3.81696C278.523 3.81696 279.309 4.06289 279.907 4.55475C280.506 5.04661 280.827 5.72024 280.87 6.57564H279.41C279.378 6.11586 279.191 5.74697 278.849 5.46896C278.517 5.19096 278.068 5.05195 277.502 5.05195C276.978 5.05195 276.561 5.16423 276.251 5.38877C275.941 5.61331 275.786 5.90736 275.786 6.27091C275.786 6.5596 275.876 6.80019 276.058 6.99265C276.251 7.17443 276.486 7.32412 276.764 7.44174C277.053 7.54866 277.448 7.67163 277.951 7.81063C278.582 7.98171 279.095 8.15279 279.49 8.32387C279.886 8.48426 280.223 8.73019 280.501 9.06166C280.79 9.39313 280.939 9.82618 280.95 10.3608C280.95 10.842 280.816 11.275 280.549 11.6599C280.282 12.0449 279.902 12.3496 279.41 12.5742C278.929 12.788 278.373 12.8949 277.742 12.8949ZM291.18 8.01914C291.18 8.29714 291.164 8.59119 291.132 8.90127H284.107C284.161 9.76737 284.455 10.4463 284.989 10.9382C285.535 11.4194 286.192 11.6599 286.962 11.6599C287.593 11.6599 288.117 11.5156 288.534 11.2269C288.961 10.9275 289.261 10.5319 289.432 10.04H291.004C290.769 10.8847 290.298 11.5744 289.592 12.109C288.887 12.633 288.01 12.8949 286.962 12.8949C286.128 12.8949 285.379 12.7078 284.717 12.3336C284.064 11.9593 283.551 11.4301 283.177 10.7457C282.803 10.0507 282.615 9.24878 282.615 8.33991C282.615 7.43105 282.797 6.63445 283.161 5.95013C283.524 5.26581 284.032 4.74187 284.684 4.37832C285.347 4.00408 286.107 3.81696 286.962 3.81696C287.796 3.81696 288.534 3.99874 289.175 4.36229C289.817 4.72583 290.309 5.22838 290.651 5.86993C291.004 6.50079 291.18 7.2172 291.18 8.01914ZM289.673 7.7144C289.673 7.15839 289.55 6.68257 289.304 6.28694C289.058 5.88063 288.721 5.57589 288.293 5.37273C287.876 5.15888 287.411 5.05195 286.898 5.05195C286.16 5.05195 285.529 5.28719 285.005 5.75766C284.492 6.22813 284.198 6.88038 284.123 7.7144H289.673ZM294.717 5.38877C294.973 4.88622 295.337 4.49594 295.807 4.21794C296.288 3.93993 296.871 3.80093 297.555 3.80093V5.30858H297.171C295.535 5.30858 294.717 6.19606 294.717 7.97102V12.7506H293.257V3.96131H294.717V5.38877ZM302.663 11.4033L305.389 3.96131H306.945L303.497 12.7506H301.796L298.348 3.96131H299.92L302.663 11.4033ZM316.551 8.01914C316.551 8.29714 316.535 8.59119 316.503 8.90127H309.478C309.531 9.76737 309.825 10.4463 310.36 10.9382C310.905 11.4194 311.563 11.6599 312.333 11.6599C312.964 11.6599 313.488 11.5156 313.905 11.2269C314.332 10.9275 314.632 10.5319 314.803 10.04H316.375C316.139 10.8847 315.669 11.5744 314.963 12.109C314.257 12.633 313.381 12.8949 312.333 12.8949C311.499 12.8949 310.75 12.7078 310.087 12.3336C309.435 11.9593 308.922 11.4301 308.548 10.7457C308.173 10.0507 307.986 9.24878 307.986 8.33991C307.986 7.43105 308.168 6.63445 308.532 5.95013C308.895 5.26581 309.403 4.74187 310.055 4.37832C310.718 4.00408 311.477 3.81696 312.333 3.81696C313.167 3.81696 313.905 3.99874 314.546 4.36229C315.188 4.72583 315.68 5.22838 316.022 5.86993C316.375 6.50079 316.551 7.2172 316.551 8.01914ZM315.043 7.7144C315.043 7.15839 314.92 6.68257 314.674 6.28694C314.428 5.88063 314.092 5.57589 313.664 5.37273C313.247 5.15888 312.782 5.05195 312.269 5.05195C311.531 5.05195 310.9 5.28719 310.376 5.75766C309.863 6.22813 309.569 6.88038 309.494 7.7144H315.043ZM318.083 8.32387C318.083 7.4257 318.264 6.6398 318.628 5.96617C318.991 5.28184 319.489 4.75256 320.119 4.37832C320.761 4.00408 321.477 3.81696 322.269 3.81696C322.953 3.81696 323.589 3.97735 324.177 4.29813C324.765 4.60821 325.214 5.01988 325.525 5.53312V0.881861H327V12.7506H325.525V11.0986C325.236 11.6225 324.808 12.0556 324.241 12.3977C323.675 12.7292 323.012 12.8949 322.253 12.8949C321.472 12.8949 320.761 12.7025 320.119 12.3175C319.489 11.9326 318.991 11.3926 318.628 10.6976C318.264 10.0026 318.083 9.21136 318.083 8.32387ZM325.525 8.33991C325.525 7.67698 325.391 7.09958 325.124 6.60772C324.856 6.11586 324.493 5.74162 324.033 5.485C323.584 5.21769 323.087 5.08403 322.541 5.08403C321.996 5.08403 321.499 5.21234 321.05 5.46896C320.601 5.72559 320.242 6.09982 319.975 6.59168C319.708 7.08354 319.574 7.66094 319.574 8.32387C319.574 8.9975 319.708 9.58559 319.975 10.0881C320.242 10.58 320.601 10.9596 321.05 11.2269C321.499 11.4835 321.996 11.6118 322.541 11.6118C323.087 11.6118 323.584 11.4835 324.033 11.2269C324.493 10.9596 324.856 10.58 325.124 10.0881C325.391 9.58559 325.525 9.00285 325.525 8.33991Z" fill="white"/>
<path d="M66.723 12.7506H63.9803L59.3932 5.80578V12.7506H56.6506V1.49134H59.3932L63.9803 8.46822V1.49134H66.723V12.7506ZM68.3161 8.25972C68.3161 7.34016 68.4872 6.53287 68.8293 5.83786C69.1822 5.14284 69.658 4.60821 70.2568 4.23397C70.8556 3.85974 71.5239 3.67262 72.2617 3.67262C72.8925 3.67262 73.4432 3.80093 73.9137 4.05755C74.3948 4.31417 74.7637 4.65098 75.0203 5.06799V3.80093H77.763V12.7506H75.0203V11.4835C74.753 11.9005 74.3788 12.2373 73.8976 12.494C73.4271 12.7506 72.8765 12.8789 72.2456 12.8789C71.5185 12.8789 70.8556 12.6918 70.2568 12.3175C69.658 11.9326 69.1822 11.3926 68.8293 10.6976C68.4872 9.99191 68.3161 9.17928 68.3161 8.25972ZM75.0203 8.27576C75.0203 7.59143 74.8279 7.05146 74.4429 6.65584C74.0687 6.26021 73.6089 6.0624 73.0636 6.0624C72.5183 6.0624 72.0531 6.26021 71.6682 6.65584C71.294 7.04077 71.1069 7.5754 71.1069 8.25972C71.1069 8.94404 71.294 9.48936 71.6682 9.89568C72.0531 10.2913 72.5183 10.4891 73.0636 10.4891C73.6089 10.4891 74.0687 10.2913 74.4429 9.89568C74.8279 9.50005 75.0203 8.96008 75.0203 8.27576ZM85.3507 3.70469C86.3986 3.70469 87.2326 4.04686 87.8528 4.73118C88.4836 5.40481 88.7991 6.33506 88.7991 7.52193V12.7506H86.0725V7.89083C86.0725 7.29204 85.9174 6.82692 85.6073 6.49545C85.2972 6.16398 84.8802 5.99824 84.3563 5.99824C83.8324 5.99824 83.4154 6.16398 83.1053 6.49545C82.7952 6.82692 82.6401 7.29204 82.6401 7.89083V12.7506H79.8975V3.80093H82.6401V4.9878C82.9181 4.59217 83.2924 4.28209 83.7629 4.05755C84.2333 3.82231 84.7626 3.70469 85.3507 3.70469ZM94.9291 12.8789C94.0524 12.8789 93.2611 12.6918 92.5554 12.3175C91.8604 11.9433 91.3097 11.4087 90.9034 10.7137C90.5078 10.0186 90.31 9.20601 90.31 8.27576C90.31 7.3562 90.5131 6.54891 90.9194 5.8539C91.3258 5.14819 91.8818 4.60821 92.5875 4.23397C93.2932 3.85974 94.0844 3.67262 94.9612 3.67262C95.838 3.67262 96.6293 3.85974 97.335 4.23397C98.0407 4.60821 98.5967 5.14819 99.003 5.8539C99.4093 6.54891 99.6125 7.3562 99.6125 8.27576C99.6125 9.19532 99.404 10.008 98.987 10.7137C98.5807 11.4087 98.0193 11.9433 97.3029 12.3175C96.5972 12.6918 95.8059 12.8789 94.9291 12.8789ZM94.9291 10.5052C95.4531 10.5052 95.8968 10.3127 96.2604 9.92776C96.6346 9.54282 96.8217 8.99216 96.8217 8.27576C96.8217 7.55936 96.64 7.00869 96.2764 6.62376C95.9236 6.23883 95.4852 6.04636 94.9612 6.04636C94.4266 6.04636 93.9829 6.23883 93.63 6.62376C93.2771 6.998 93.1007 7.54866 93.1007 8.27576C93.1007 8.99216 93.2718 9.54282 93.614 9.92776C93.9668 10.3127 94.4052 10.5052 94.9291 10.5052ZM103.961 3.68865V5.96617H107.633V8.08329H103.961V10.5533H108.115V12.7506H101.218V1.49134H108.115V3.68865H103.961ZM115.338 12.7506L113.622 10.2646L112.179 12.7506H109.211L112.163 8.17952L109.131 3.80093H112.211L113.927 6.27091L115.37 3.80093H118.338L115.338 8.30784L118.418 12.7506H115.338ZM128.916 12.7506L126.574 8.5003H125.917V12.7506H123.174V1.49134H127.777C128.665 1.49134 129.419 1.64638 130.039 1.95646C130.67 2.26655 131.14 2.69425 131.45 3.23957C131.76 3.77419 131.915 4.37298 131.915 5.03592C131.915 5.78439 131.701 6.45268 131.274 7.04077C130.857 7.62886 130.237 8.04587 129.413 8.2918L132.012 12.7506H128.916ZM125.917 6.5596H127.617C128.119 6.5596 128.494 6.43664 128.74 6.19071C128.996 5.94478 129.125 5.59727 129.125 5.14819C129.125 4.72049 128.996 4.38367 128.74 4.13774C128.494 3.89181 128.119 3.76885 127.617 3.76885H125.917V6.5596ZM149.281 1.49134L146.346 12.7506H143.026L141.229 5.34065L139.369 12.7506H136.049L133.194 1.49134H136.129L137.749 9.68717L139.754 1.49134H142.769L144.694 9.68717L146.33 1.49134H149.281ZM157.816 10.7618H153.613L152.94 12.7506H150.069L154.143 1.49134H157.318L161.392 12.7506H158.489L157.816 10.7618ZM157.11 8.64465L155.715 4.52267L154.335 8.64465H157.11Z" fill="url(#paint0_linear_19_577)"/>
<defs>
<linearGradient id="paint0_linear_19_577" x1="495.009" y1="7.23724" x2="-167.595" y2="7.23724" gradientUnits="userSpaceOnUse">
<stop offset="0.26" stop-color="#56C690"/>
<stop offset="1" stop-color="white"/>
</linearGradient>
</defs>
</svg>
