<svg width="659" height="189" viewBox="0 0 659 189" fill="none" xmlns="http://www.w3.org/2000/svg">
<path d="M23.089 19.9225C25.19 19.9225 27.241 20.3602 29.242 21.2356C31.243 22.086 32.8813 23.4492 34.1569 25.3251C35.4576 27.2011 36.1079 29.6523 36.1079 32.6788V51.6256H26.5407V34.3296C26.5407 31.8033 25.9404 29.9274 24.7398 28.7018C23.5642 27.4762 22.0134 26.8634 20.0875 26.8634C18.8369 26.8634 17.6363 27.2136 16.4857 27.9139C15.3601 28.5892 14.4347 29.5397 13.7093 30.7653C13.009 31.9659 12.6588 33.3416 12.6588 34.8924V51.6256H3.12909V20.8229H12.6588V25.7378C12.9339 24.8874 13.5593 24.012 14.5347 23.1115C15.5102 22.2111 16.7483 21.4607 18.2491 20.8604C19.7498 20.2351 21.3631 19.9225 23.089 19.9225ZM43.4375 2.10114H62.497C65.2983 2.10114 67.8121 2.68893 70.0382 3.86451C72.2643 5.01508 74.0277 6.70341 75.3283 8.92952C76.654 11.1306 77.3168 13.7944 77.3168 16.921C77.3168 20.0225 76.7415 22.5738 75.5909 24.5748C74.4404 26.5507 73.0522 28.039 71.4264 29.0395C69.8256 30.04 68.3373 30.6152 66.9617 30.7653L79.1177 51.6256H68.5374L57.5445 31.4782H52.7796V51.6256H43.4375V2.10114ZM52.7796 24.8749H59.1578C61.534 24.8749 63.5475 24.2871 65.1983 23.1115C66.8741 21.936 67.712 19.96 67.712 17.1836C67.712 14.4072 66.8866 12.4563 65.2358 11.3307C63.585 10.1801 61.584 9.60485 59.2328 9.60485H52.7796V24.8749ZM134.806 51.6256H123.401L114.209 14.1821H115.935L106.705 51.6256H95.2618L84.3064 2.10114H95.0367L101.602 39.3196H101.49L111.32 2.10114H118.786L128.653 39.3196H128.503L135.107 2.10114H145.837L134.806 51.6256ZM164.168 2.10114H173.585L192.644 51.6256H182.664L178.8 40.9329H158.99L155.051 51.6256H145.033L164.168 2.10114ZM162.067 32.6413H175.723L168.932 13.4317H168.82L162.067 32.6413ZM226.203 10.3927H213.784V2.10114H247.964V10.3927H235.582V51.6256H226.203V10.3927ZM263.446 52.5261C260.169 52.5261 257.243 51.8257 254.666 50.4251C252.115 49.0244 250.114 47.1109 248.664 44.6847C247.213 42.2335 246.487 39.4446 246.487 36.3181C246.487 33.1915 247.213 30.4026 248.664 27.9514C250.114 25.4752 252.115 23.5242 254.666 22.0985C257.243 20.6478 260.169 19.9225 263.446 19.9225C266.747 19.9225 269.661 20.6478 272.188 22.0985C274.714 23.5242 276.69 25.4752 278.116 27.9514C279.541 30.4026 280.254 33.1915 280.254 36.3181C280.254 39.4446 279.541 42.2335 278.116 44.6847C276.69 47.1109 274.714 49.0244 272.188 50.4251C269.661 51.8257 266.747 52.5261 263.446 52.5261ZM263.446 44.6097C265.022 44.6097 266.385 44.2595 267.535 43.5592C268.711 42.8338 269.611 41.8458 270.237 40.5952C270.887 39.3196 271.212 37.8813 271.212 36.2806C271.212 34.6798 270.887 33.2415 270.237 31.9659C269.611 30.6903 268.711 29.6898 267.535 28.9644C266.385 28.2141 265.022 27.8389 263.446 27.8389C261.87 27.8389 260.494 28.2141 259.319 28.9644C258.168 29.6898 257.268 30.6903 256.617 31.9659C255.967 33.2415 255.642 34.6798 255.642 36.2806C255.642 37.8813 255.967 39.3196 256.617 40.5952C257.268 41.8458 258.168 42.8338 259.319 43.5592C260.494 44.2595 261.87 44.6097 263.446 44.6097ZM306.835 20.8229H317.791L302.746 35.5302L319.142 51.6256H307.924L295.13 38.7568V51.6256H285.6V9.59514e-05H295.13V32.116L306.835 20.8229ZM328.402 38.3441C328.477 39.7448 328.852 40.9954 329.528 42.0959C330.203 43.1965 331.179 44.0594 332.454 44.6847C333.755 45.31 335.306 45.6227 337.106 45.6227C338.732 45.6227 340.158 45.4226 341.384 45.0224C342.634 44.6222 343.685 44.1344 344.535 43.5592C345.411 42.9589 346.061 42.3836 346.486 41.8333L350.426 47.6862C349.725 48.5616 348.787 49.3745 347.612 50.1249C346.461 50.8503 344.985 51.4256 343.185 51.8508C341.409 52.301 339.183 52.5261 336.506 52.5261C333.13 52.5261 330.166 51.8633 327.614 50.5376C325.063 49.212 323.075 47.2985 321.649 44.7973C320.223 42.296 319.51 39.3196 319.51 35.8678C319.51 32.8664 320.148 30.165 321.424 27.7638C322.699 25.3376 324.55 23.4242 326.976 22.0235C329.428 20.6228 332.367 19.9225 335.793 19.9225C339.02 19.9225 341.809 20.5478 344.16 21.7984C346.536 23.024 348.375 24.8249 349.675 27.2011C350.976 29.5772 351.626 32.4787 351.626 35.9054C351.626 36.1055 351.614 36.5182 351.589 37.1435C351.589 37.7438 351.564 38.144 351.514 38.3441H328.402ZM342.697 32.4537C342.672 31.6533 342.422 30.7903 341.946 29.8649C341.496 28.9394 340.783 28.1515 339.808 27.5012C338.832 26.8509 337.532 26.5257 335.906 26.5257C334.28 26.5257 332.942 26.8384 331.891 27.4637C330.866 28.089 330.091 28.8644 329.565 29.7898C329.04 30.6903 328.74 31.5782 328.665 32.4537H342.697ZM377.683 19.9225C379.784 19.9225 381.835 20.3602 383.836 21.2356C385.837 22.086 387.476 23.4492 388.751 25.3251C390.052 27.2011 390.702 29.6523 390.702 32.6788V51.6256H381.135V34.3296C381.135 31.8033 380.535 29.9274 379.334 28.7018C378.159 27.4762 376.608 26.8634 374.682 26.8634C373.431 26.8634 372.231 27.2136 371.08 27.9139C369.955 28.5892 369.029 29.5397 368.304 30.7653C367.603 31.9659 367.253 33.3416 367.253 34.8924V51.6256H357.724V20.8229H367.253V25.7378C367.528 24.8874 368.154 24.012 369.129 23.1115C370.105 22.2111 371.343 21.4607 372.844 20.8604C374.344 20.2351 375.958 19.9225 377.683 19.9225Z" fill="url(#paint0_linear_0_221)"/>
<path d="M2.20613 89.9446H12.0885C13.9645 89.9446 15.6603 90.2673 17.176 90.9126C18.7068 91.5579 19.9224 92.5484 20.8228 93.8841C21.7233 95.2047 22.1735 96.8931 22.1735 98.9491C22.1735 100.99 21.7233 102.708 20.8228 104.104C19.9224 105.5 18.7068 106.558 17.176 107.278C15.6603 107.984 13.9645 108.336 12.0885 108.336H7.81141V119.659H2.20613V89.9446ZM7.81141 103.811H10.5353C11.5858 103.811 12.5312 103.661 13.3717 103.361C14.2271 103.046 14.9099 102.543 15.4202 101.853C15.9304 101.163 16.1856 100.24 16.1856 99.0841C16.1856 97.9136 15.9304 96.9981 15.4202 96.3378C14.9099 95.6624 14.2271 95.1822 13.3717 94.8971C12.5312 94.5969 11.5858 94.4468 10.5353 94.4468H7.81141V103.811ZM33.6757 120.2C31.7097 120.2 29.9538 119.779 28.408 118.939C26.8773 118.099 25.6767 116.95 24.8063 115.495C23.9358 114.024 23.5006 112.351 23.5006 110.475C23.5006 108.599 23.9358 106.926 24.8063 105.455C25.6767 103.969 26.8773 102.798 28.408 101.943C29.9538 101.073 31.7097 100.637 33.6757 100.637C35.6566 100.637 37.405 101.073 38.9207 101.943C40.4365 102.798 41.6221 103.969 42.4775 105.455C43.3329 106.926 43.7606 108.599 43.7606 110.475C43.7606 112.351 43.3329 114.024 42.4775 115.495C41.6221 116.95 40.4365 118.099 38.9207 118.939C37.405 119.779 35.6566 120.2 33.6757 120.2ZM33.6757 115.45C34.6211 115.45 35.439 115.24 36.1294 114.819C36.8347 114.384 37.375 113.791 37.7502 113.041C38.1404 112.276 38.3355 111.413 38.3355 110.452C38.3355 109.492 38.1404 108.629 37.7502 107.863C37.375 107.098 36.8347 106.498 36.1294 106.063C35.439 105.612 34.6211 105.387 33.6757 105.387C32.7302 105.387 31.9048 105.612 31.1994 106.063C30.5091 106.498 29.9688 107.098 29.5786 107.863C29.1884 108.629 28.9933 109.492 28.9933 110.452C28.9933 111.413 29.1884 112.276 29.5786 113.041C29.9688 113.791 30.5091 114.384 31.1994 114.819C31.9048 115.24 32.7302 115.45 33.6757 115.45ZM61.0376 107.751L56.5804 119.659H51.1552L45.4599 101.178H51.5379L54.6444 113.514L59.0341 101.538H63.0636L67.4082 113.514L70.5373 101.178H76.6153L70.9425 119.659H65.5173L61.0376 107.751ZM83.5533 111.69C83.5983 112.531 83.8234 113.281 84.2286 113.941C84.6338 114.602 85.2191 115.12 85.9845 115.495C86.7649 115.87 87.6954 116.058 88.7759 116.058C89.7514 116.058 90.6068 115.937 91.3422 115.697C92.0925 115.457 92.7228 115.165 93.2331 114.819C93.7584 114.459 94.1486 114.114 94.4037 113.784L96.7673 117.296C96.3471 117.821 95.7844 118.309 95.079 118.759C94.3887 119.194 93.5032 119.539 92.4227 119.794C91.3572 120.065 90.0215 120.2 88.4157 120.2C86.3897 120.2 84.6113 119.802 83.0806 119.006C81.5498 118.211 80.3567 117.063 79.5013 115.562C78.6459 114.062 78.2182 112.276 78.2182 110.205C78.2182 108.404 78.6009 106.783 79.3662 105.342C80.1316 103.887 81.2422 102.738 82.6979 101.898C84.1686 101.058 85.932 100.637 87.988 100.637C89.924 100.637 91.5973 101.013 93.008 101.763C94.4337 102.498 95.5367 103.579 96.3171 105.005C97.0975 106.43 97.4877 108.171 97.4877 110.227C97.4877 110.347 97.4802 110.595 97.4652 110.97C97.4652 111.33 97.4502 111.57 97.4202 111.69H83.5533ZM92.1301 108.156C92.115 107.676 91.965 107.158 91.6798 106.603C91.4097 106.048 90.982 105.575 90.3967 105.185C89.8114 104.794 89.031 104.599 88.0555 104.599C87.0801 104.599 86.2772 104.787 85.6468 105.162C85.0315 105.537 84.5663 106.003 84.2512 106.558C83.936 107.098 83.7559 107.631 83.7109 108.156H92.1301ZM106.661 119.659H100.944V101.178H106.661V104.172H106.549C106.654 103.811 106.939 103.354 107.404 102.798C107.884 102.243 108.545 101.748 109.385 101.313C110.226 100.863 111.239 100.637 112.424 100.637C113.28 100.637 114.053 100.765 114.743 101.02C115.448 101.26 115.951 101.5 116.251 101.74L114 106.423C113.805 106.183 113.437 105.935 112.897 105.68C112.372 105.425 111.711 105.297 110.916 105.297C109.97 105.297 109.183 105.56 108.552 106.085C107.922 106.595 107.449 107.226 107.134 107.976C106.819 108.711 106.661 109.402 106.661 110.047V119.659ZM118.701 119.659V101.178H124.396V119.659H118.701ZM121.627 96.4053C120.682 96.4053 119.879 96.0751 119.218 95.4148C118.573 94.7545 118.25 93.9666 118.25 93.0512C118.25 92.1357 118.581 91.3403 119.241 90.665C119.901 89.9896 120.697 89.652 121.627 89.652C122.242 89.652 122.805 89.8095 123.315 90.1247C123.826 90.4249 124.238 90.8301 124.553 91.3403C124.869 91.8506 125.026 92.4208 125.026 93.0512C125.026 93.9666 124.689 94.7545 124.013 95.4148C123.353 96.0751 122.557 96.4053 121.627 96.4053ZM141.393 100.637C142.653 100.637 143.884 100.9 145.085 101.425C146.285 101.936 147.268 102.753 148.034 103.879C148.814 105.005 149.204 106.475 149.204 108.291V119.659H143.464V109.282C143.464 107.766 143.104 106.64 142.383 105.905C141.678 105.17 140.748 104.802 139.592 104.802C138.842 104.802 138.121 105.012 137.431 105.432C136.756 105.837 136.2 106.408 135.765 107.143C135.345 107.863 135.135 108.689 135.135 109.619V119.659H129.417V101.178H135.135V104.127C135.3 103.616 135.675 103.091 136.26 102.551C136.846 102.011 137.588 101.56 138.489 101.2C139.389 100.825 140.357 100.637 141.393 100.637ZM163.012 129.542C161.661 129.542 160.363 129.414 159.117 129.159C157.887 128.904 156.769 128.506 155.763 127.966C154.758 127.426 153.917 126.72 153.242 125.85L156.709 122.338C157.024 122.743 157.429 123.149 157.924 123.554C158.434 123.974 159.08 124.319 159.86 124.589C160.64 124.874 161.616 125.017 162.787 125.017C163.897 125.017 164.85 124.799 165.645 124.364C166.456 123.944 167.079 123.344 167.514 122.563C167.964 121.783 168.189 120.875 168.189 119.839V119.322H173.794V120.177C173.794 122.218 173.314 123.936 172.354 125.332C171.393 126.728 170.103 127.778 168.482 128.484C166.861 129.189 165.038 129.542 163.012 129.542ZM168.189 119.659V116.44C168.054 116.77 167.709 117.236 167.154 117.836C166.598 118.436 165.848 118.984 164.903 119.479C163.972 119.959 162.877 120.2 161.616 120.2C159.845 120.2 158.277 119.779 156.911 118.939C155.545 118.084 154.472 116.92 153.692 115.45C152.927 113.964 152.544 112.291 152.544 110.43C152.544 108.569 152.927 106.903 153.692 105.432C154.472 103.947 155.545 102.776 156.911 101.921C158.277 101.065 159.845 100.637 161.616 100.637C162.847 100.637 163.912 100.848 164.813 101.268C165.728 101.673 166.463 102.153 167.019 102.708C167.589 103.249 167.957 103.736 168.122 104.172V101.178H173.794V119.659H168.189ZM158.149 110.43C158.149 111.465 158.382 112.381 158.847 113.176C159.312 113.957 159.928 114.564 160.693 115C161.458 115.435 162.291 115.652 163.192 115.652C164.137 115.652 164.978 115.435 165.713 115C166.448 114.549 167.026 113.934 167.446 113.154C167.882 112.358 168.099 111.45 168.099 110.43C168.099 109.409 167.882 108.509 167.446 107.728C167.026 106.933 166.448 106.31 165.713 105.86C164.978 105.41 164.137 105.185 163.192 105.185C162.291 105.185 161.458 105.41 160.693 105.86C159.928 106.295 159.312 106.911 158.847 107.706C158.382 108.486 158.149 109.394 158.149 110.43ZM188.652 101.178H191.983V93.5914H197.656V101.178H202.023V105.928H197.656V112.613C197.656 113.499 197.799 114.189 198.084 114.684C198.369 115.165 198.819 115.405 199.435 115.405C199.9 115.405 200.283 115.315 200.583 115.135C200.883 114.939 201.063 114.804 201.123 114.729L203.149 118.826C203.059 118.916 202.766 119.074 202.271 119.299C201.791 119.524 201.168 119.727 200.403 119.907C199.652 120.102 198.804 120.2 197.859 120.2C196.163 120.2 194.76 119.712 193.649 118.736C192.539 117.746 191.983 116.215 191.983 114.144V105.928H188.652V101.178ZM217.965 100.637C219.226 100.637 220.456 100.9 221.657 101.425C222.858 101.936 223.841 102.753 224.606 103.879C225.386 105.005 225.777 106.475 225.777 108.291V119.659H220.036V109.282C220.036 107.766 219.691 106.64 219.001 105.905C218.325 105.17 217.417 104.802 216.277 104.802C215.512 104.802 214.776 105.012 214.071 105.432C213.38 105.837 212.81 106.408 212.36 107.143C211.925 107.863 211.707 108.689 211.707 109.619V119.659H205.967V88.684H211.707V104.127C211.857 103.616 212.225 103.091 212.81 102.551C213.395 102.011 214.138 101.56 215.039 101.2C215.939 100.825 216.915 100.637 217.965 100.637ZM234.536 111.69C234.581 112.531 234.806 113.281 235.212 113.941C235.617 114.602 236.202 115.12 236.967 115.495C237.748 115.87 238.678 116.058 239.759 116.058C240.734 116.058 241.59 115.937 242.325 115.697C243.075 115.457 243.706 115.165 244.216 114.819C244.741 114.459 245.131 114.114 245.387 113.784L247.75 117.296C247.33 117.821 246.767 118.309 246.062 118.759C245.372 119.194 244.486 119.539 243.406 119.794C242.34 120.065 241.004 120.2 239.399 120.2C237.373 120.2 235.594 119.802 234.064 119.006C232.533 118.211 231.34 117.063 230.484 115.562C229.629 114.062 229.201 112.276 229.201 110.205C229.201 108.404 229.584 106.783 230.349 105.342C231.115 103.887 232.225 102.738 233.681 101.898C235.152 101.058 236.915 100.637 238.971 100.637C240.907 100.637 242.58 101.013 243.991 101.763C245.417 102.498 246.52 103.579 247.3 105.005C248.08 106.43 248.471 108.171 248.471 110.227C248.471 110.347 248.463 110.595 248.448 110.97C248.448 111.33 248.433 111.57 248.403 111.69H234.536ZM243.113 108.156C243.098 107.676 242.948 107.158 242.663 106.603C242.393 106.048 241.965 105.575 241.38 105.185C240.794 104.794 240.014 104.599 239.038 104.599C238.063 104.599 237.26 104.787 236.63 105.162C236.014 105.537 235.549 106.003 235.234 106.558C234.919 107.098 234.739 107.631 234.694 108.156H243.113ZM264.095 89.9446H280.619V94.9196H269.723V102.281H279.831V107.233H269.723V119.659H264.095V89.9446ZM290.555 110.025C290.555 111.675 290.885 112.996 291.546 113.987C292.206 114.962 293.272 115.45 294.742 115.45C296.228 115.45 297.301 114.962 297.961 113.987C298.622 112.996 298.952 111.675 298.952 110.025V101.178H304.58V110.677C304.58 112.583 304.197 114.257 303.432 115.697C302.666 117.123 301.548 118.234 300.077 119.029C298.622 119.809 296.843 120.2 294.742 120.2C292.656 120.2 290.878 119.809 289.407 119.029C287.951 118.234 286.841 117.123 286.075 115.697C285.31 114.257 284.927 112.583 284.927 110.677V101.178H290.555V110.025ZM307.451 101.178H310.783V93.5914H316.455V101.178H320.823V105.928H316.455V112.613C316.455 113.499 316.598 114.189 316.883 114.684C317.168 115.165 317.618 115.405 318.234 115.405C318.699 115.405 319.082 115.315 319.382 115.135C319.682 114.939 319.862 114.804 319.922 114.729L321.948 118.826C321.858 118.916 321.565 119.074 321.07 119.299C320.59 119.524 319.967 119.727 319.202 119.907C318.451 120.102 317.603 120.2 316.658 120.2C314.962 120.2 313.559 119.712 312.448 118.736C311.338 117.746 310.783 116.215 310.783 114.144V105.928H307.451V101.178ZM330.214 110.025C330.214 111.675 330.544 112.996 331.204 113.987C331.864 114.962 332.93 115.45 334.401 115.45C335.886 115.45 336.959 114.962 337.62 113.987C338.28 112.996 338.61 111.675 338.61 110.025V101.178H344.238V110.677C344.238 112.583 343.855 114.257 343.09 115.697C342.325 117.123 341.206 118.234 339.736 119.029C338.28 119.809 336.502 120.2 334.401 120.2C332.315 120.2 330.536 119.809 329.065 119.029C327.61 118.234 326.499 117.123 325.734 115.697C324.968 114.257 324.586 112.583 324.586 110.677V101.178H330.214V110.025ZM354.196 119.659H348.478V101.178H354.196V104.172H354.083C354.188 103.811 354.474 103.354 354.939 102.798C355.419 102.243 356.079 101.748 356.92 101.313C357.76 100.863 358.773 100.637 359.959 100.637C360.814 100.637 361.587 100.765 362.277 101.02C362.983 101.26 363.486 101.5 363.786 101.74L361.535 106.423C361.34 106.183 360.972 105.935 360.432 105.68C359.906 105.425 359.246 105.297 358.451 105.297C357.505 105.297 356.717 105.56 356.087 106.085C355.457 106.595 354.984 107.226 354.669 107.976C354.354 108.711 354.196 109.402 354.196 110.047V119.659ZM369.735 111.69C369.78 112.531 370.005 113.281 370.41 113.941C370.816 114.602 371.401 115.12 372.166 115.495C372.947 115.87 373.877 116.058 374.958 116.058C375.933 116.058 376.788 115.937 377.524 115.697C378.274 115.457 378.905 115.165 379.415 114.819C379.94 114.459 380.33 114.114 380.585 113.784L382.949 117.296C382.529 117.821 381.966 118.309 381.261 118.759C380.57 119.194 379.685 119.539 378.604 119.794C377.539 120.065 376.203 120.2 374.597 120.2C372.571 120.2 370.793 119.802 369.262 119.006C367.732 118.211 366.538 117.063 365.683 115.562C364.828 114.062 364.4 112.276 364.4 110.205C364.4 108.404 364.783 106.783 365.548 105.342C366.313 103.887 367.424 102.738 368.88 101.898C370.35 101.058 372.114 100.637 374.17 100.637C376.106 100.637 377.779 101.013 379.19 101.763C380.615 102.498 381.718 103.579 382.499 105.005C383.279 106.43 383.669 108.171 383.669 110.227C383.669 110.347 383.662 110.595 383.647 110.97C383.647 111.33 383.632 111.57 383.602 111.69H369.735ZM378.312 108.156C378.297 107.676 378.147 107.158 377.862 106.603C377.591 106.048 377.164 105.575 376.578 105.185C375.993 104.794 375.213 104.599 374.237 104.599C373.262 104.599 372.459 104.787 371.829 105.162C371.213 105.537 370.748 106.003 370.433 106.558C370.118 107.098 369.938 107.631 369.893 108.156H378.312ZM408.231 120.2C406.265 120.2 404.509 119.779 402.964 118.939C401.433 118.099 400.232 116.95 399.362 115.495C398.491 114.024 398.056 112.351 398.056 110.475C398.056 108.599 398.491 106.926 399.362 105.455C400.232 103.969 401.433 102.798 402.964 101.943C404.509 101.073 406.265 100.637 408.231 100.637C410.212 100.637 411.961 101.073 413.476 101.943C414.992 102.798 416.178 103.969 417.033 105.455C417.888 106.926 418.316 108.599 418.316 110.475C418.316 112.351 417.888 114.024 417.033 115.495C416.178 116.95 414.992 118.099 413.476 118.939C411.961 119.779 410.212 120.2 408.231 120.2ZM408.231 115.45C409.177 115.45 409.995 115.24 410.685 114.819C411.39 114.384 411.93 113.791 412.306 113.041C412.696 112.276 412.891 111.413 412.891 110.452C412.891 109.492 412.696 108.629 412.306 107.863C411.93 107.098 411.39 106.498 410.685 106.063C409.995 105.612 409.177 105.387 408.231 105.387C407.286 105.387 406.46 105.612 405.755 106.063C405.065 106.498 404.524 107.098 404.134 107.863C403.744 108.629 403.549 109.492 403.549 110.452C403.549 111.413 403.744 112.276 404.134 113.041C404.524 113.791 405.065 114.384 405.755 114.819C406.46 115.24 407.286 115.45 408.231 115.45ZM420.447 101.178H423.779V96.1577C423.779 94.3268 424.139 92.826 424.86 91.6555C425.58 90.4699 426.51 89.5919 427.651 89.0217C428.791 88.4364 429.97 88.1437 431.185 88.1437C432.671 88.1437 433.811 88.3463 434.607 88.7515C435.402 89.1567 435.89 89.4494 436.07 89.6295L433.864 93.8616C433.789 93.7565 433.579 93.5914 433.234 93.3663C432.903 93.1262 432.461 93.0061 431.905 93.0061C431.515 93.0061 431.133 93.1037 430.757 93.2988C430.382 93.4939 430.075 93.854 429.834 94.3793C429.594 94.9046 429.474 95.6775 429.474 96.698V101.178H434.314V105.928H429.474V119.659H423.779V105.928H420.447V101.178ZM449.017 89.9446H460.452C462.133 89.9446 463.642 90.2973 464.977 91.0026C466.313 91.693 467.371 92.706 468.151 94.0416C468.947 95.3623 469.344 96.9606 469.344 98.8365C469.344 100.697 468.999 102.228 468.309 103.429C467.618 104.614 466.786 105.507 465.81 106.108C464.85 106.708 463.957 107.053 463.131 107.143L470.425 119.659H464.077L457.481 107.571H454.622V119.659H449.017V89.9446ZM454.622 103.609H458.449C459.875 103.609 461.083 103.256 462.073 102.551C463.079 101.846 463.581 100.66 463.581 98.9941C463.581 97.3283 463.086 96.1577 462.096 95.4824C461.105 94.792 459.905 94.4468 458.494 94.4468H454.622V103.609ZM479.301 111.69C479.346 112.531 479.571 113.281 479.976 113.941C480.381 114.602 480.967 115.12 481.732 115.495C482.513 115.87 483.443 116.058 484.524 116.058C485.499 116.058 486.354 115.937 487.09 115.697C487.84 115.457 488.47 115.165 488.981 114.819C489.506 114.459 489.896 114.114 490.151 113.784L492.515 117.296C492.095 117.821 491.532 118.309 490.827 118.759C490.136 119.194 489.251 119.539 488.17 119.794C487.105 120.065 485.769 120.2 484.163 120.2C482.137 120.2 480.359 119.802 478.828 119.006C477.297 118.211 476.104 117.063 475.249 115.562C474.394 114.062 473.966 112.276 473.966 110.205C473.966 108.404 474.348 106.783 475.114 105.342C475.879 103.887 476.99 102.738 478.446 101.898C479.916 101.058 481.68 100.637 483.736 100.637C485.672 100.637 487.345 101.013 488.756 101.763C490.181 102.498 491.284 103.579 492.065 105.005C492.845 106.43 493.235 108.171 493.235 110.227C493.235 110.347 493.228 110.595 493.213 110.97C493.213 111.33 493.198 111.57 493.168 111.69H479.301ZM487.878 108.156C487.863 107.676 487.713 107.158 487.427 106.603C487.157 106.048 486.73 105.575 486.144 105.185C485.559 104.794 484.779 104.599 483.803 104.599C482.828 104.599 482.025 104.787 481.394 105.162C480.779 105.537 480.314 106.003 479.999 106.558C479.684 107.098 479.504 107.631 479.459 108.156H487.878ZM511.616 119.659V116.44C511.481 116.77 511.136 117.236 510.581 117.836C510.025 118.436 509.275 118.984 508.329 119.479C507.399 119.959 506.303 120.2 505.043 120.2C503.272 120.2 501.704 119.779 500.338 118.939C498.972 118.084 497.899 116.92 497.119 115.45C496.353 113.964 495.971 112.291 495.971 110.43C495.971 108.569 496.353 106.903 497.119 105.432C497.899 103.947 498.972 102.776 500.338 101.921C501.704 101.065 503.272 100.637 505.043 100.637C506.273 100.637 507.339 100.848 508.239 101.268C509.155 101.673 509.89 102.153 510.445 102.708C511.016 103.249 511.383 103.736 511.549 104.172V101.178H517.221V119.659H511.616ZM501.576 110.43C501.576 111.465 501.809 112.381 502.274 113.176C502.739 113.957 503.354 114.564 504.12 115C504.885 115.435 505.718 115.652 506.619 115.652C507.564 115.652 508.404 115.435 509.14 115C509.875 114.549 510.453 113.934 510.873 113.154C511.308 112.358 511.526 111.45 511.526 110.43C511.526 109.409 511.308 108.509 510.873 107.728C510.453 106.933 509.875 106.31 509.14 105.86C508.404 105.41 507.564 105.185 506.619 105.185C505.718 105.185 504.885 105.41 504.12 105.86C503.354 106.295 502.739 106.911 502.274 107.706C501.809 108.486 501.576 109.394 501.576 110.43ZM527.701 119.659H521.96V88.684H527.701V119.659ZM532.893 111.848V106.963H544.486V111.848H532.893ZM578.494 119.659H571.651L566.136 97.1932H567.171L561.633 119.659H554.767L548.194 89.9446H554.632L558.572 112.276H558.504L564.402 89.9446H568.882L574.802 112.276H574.712L578.674 89.9446H585.112L578.494 119.659ZM596.938 120.2C594.972 120.2 593.216 119.779 591.67 118.939C590.139 118.099 588.939 116.95 588.068 115.495C587.198 114.024 586.763 112.351 586.763 110.475C586.763 108.599 587.198 106.926 588.068 105.455C588.939 103.969 590.139 102.798 591.67 101.943C593.216 101.073 594.972 100.637 596.938 100.637C598.919 100.637 600.667 101.073 602.183 101.943C603.699 102.798 604.884 103.969 605.74 105.455C606.595 106.926 607.023 108.599 607.023 110.475C607.023 112.351 606.595 114.024 605.74 115.495C604.884 116.95 603.699 118.099 602.183 118.939C600.667 119.779 598.919 120.2 596.938 120.2ZM596.938 115.45C597.883 115.45 598.701 115.24 599.392 114.819C600.097 114.384 600.637 113.791 601.012 113.041C601.403 112.276 601.598 111.413 601.598 110.452C601.598 109.492 601.403 108.629 601.012 107.863C600.637 107.098 600.097 106.498 599.392 106.063C598.701 105.612 597.883 105.387 596.938 105.387C595.992 105.387 595.167 105.612 594.462 106.063C593.771 106.498 593.231 107.098 592.841 107.863C592.451 108.629 592.256 109.492 592.256 110.452C592.256 111.413 592.451 112.276 592.841 113.041C593.231 113.791 593.771 114.384 594.462 114.819C595.167 115.24 595.992 115.45 596.938 115.45ZM616.196 119.659H610.478V101.178H616.196V104.172H616.083C616.188 103.811 616.473 103.354 616.939 102.798C617.419 102.243 618.079 101.748 618.92 101.313C619.76 100.863 620.773 100.637 621.959 100.637C622.814 100.637 623.587 100.765 624.277 101.02C624.983 101.26 625.485 101.5 625.786 101.74L623.534 106.423C623.339 106.183 622.972 105.935 622.431 105.68C621.906 105.425 621.246 105.297 620.45 105.297C619.505 105.297 618.717 105.56 618.087 106.085C617.456 106.595 616.984 107.226 616.669 107.976C616.353 108.711 616.196 109.402 616.196 110.047V119.659ZM633.705 119.659H627.965V88.684H633.705V119.659ZM646.574 120.2C644.818 120.2 643.272 119.779 641.937 118.939C640.616 118.084 639.58 116.92 638.83 115.45C638.095 113.964 637.727 112.291 637.727 110.43C637.727 108.569 638.095 106.903 638.83 105.432C639.58 103.947 640.616 102.776 641.937 101.921C643.272 101.065 644.818 100.637 646.574 100.637C647.819 100.637 648.923 100.84 649.883 101.245C650.858 101.65 651.639 102.131 652.224 102.686C652.809 103.241 653.155 103.736 653.26 104.172V88.684H659V119.659H653.327V116.44C653.087 116.965 652.644 117.521 651.999 118.106C651.354 118.691 650.566 119.187 649.635 119.592C648.705 119.997 647.684 120.2 646.574 120.2ZM648.195 115.652C649.155 115.652 650.018 115.435 650.783 115C651.549 114.549 652.149 113.934 652.584 113.154C653.035 112.358 653.26 111.45 653.26 110.43C653.26 109.409 653.035 108.509 652.584 107.728C652.149 106.933 651.549 106.31 650.783 105.86C650.018 105.41 649.155 105.185 648.195 105.185C647.309 105.185 646.499 105.41 645.763 105.86C645.028 106.295 644.435 106.911 643.985 107.706C643.55 108.486 643.332 109.394 643.332 110.43C643.332 111.465 643.55 112.381 643.985 113.176C644.435 113.957 645.028 114.564 645.763 115C646.499 115.435 647.309 115.652 648.195 115.652ZM11.4807 157.978H17.131L28.5667 187.693H22.5787L20.2601 181.277H8.37418L6.01051 187.693H3.90829e-05L11.4807 157.978ZM10.2201 176.302H18.4142L14.3396 164.777H14.2721L10.2201 176.302ZM39.009 168.671C40.1196 168.671 41.1476 168.776 42.0931 168.986C43.0385 169.181 43.8339 169.406 44.4792 169.662C45.1396 169.917 45.5748 170.134 45.7849 170.314L43.8264 173.759C43.5263 173.518 42.986 173.233 42.2056 172.903C41.4402 172.573 40.5848 172.408 39.6393 172.408C38.7839 172.408 38.0636 172.558 37.4783 172.858C36.893 173.143 36.6003 173.579 36.6003 174.164C36.6003 174.749 36.9155 175.214 37.5458 175.559C38.1761 175.905 39.0541 176.205 40.1796 176.46C41.1251 176.655 42.0555 176.955 42.971 177.36C43.8864 177.751 44.6443 178.321 45.2446 179.071C45.8449 179.807 46.1451 180.79 46.1451 182.02C46.1451 183.236 45.8824 184.249 45.3572 185.059C44.8469 185.855 44.1641 186.485 43.3087 186.95C42.4532 187.415 41.5153 187.746 40.4948 187.941C39.4743 188.136 38.4613 188.233 37.4558 188.233C36.1501 188.233 35.0021 188.106 34.0116 187.851C33.0211 187.61 32.2032 187.333 31.5578 187.018C30.9275 186.687 30.4773 186.41 30.2072 186.185L32.1656 182.358C32.5558 182.703 33.1937 183.086 34.0791 183.506C34.9795 183.911 35.9475 184.114 36.983 184.114C38.0636 184.114 38.9115 183.926 39.5268 183.551C40.1571 183.176 40.4723 182.673 40.4723 182.043C40.4723 181.577 40.3222 181.202 40.022 180.917C39.7219 180.617 39.3092 180.369 38.7839 180.174C38.2587 179.979 37.6434 179.807 36.938 179.657C36.2927 179.521 35.6324 179.326 34.957 179.071C34.2817 178.801 33.6514 178.448 33.0661 178.013C32.4808 177.578 32.0081 177.038 31.6479 176.392C31.2877 175.732 31.1076 174.944 31.1076 174.029C31.1076 172.858 31.4828 171.883 32.2332 171.102C32.9836 170.307 33.959 169.707 35.1596 169.301C36.3602 168.881 37.6434 168.671 39.009 168.671ZM57.9149 168.671C59.0254 168.671 60.0534 168.776 60.9989 168.986C61.9444 169.181 62.7398 169.406 63.3851 169.662C64.0454 169.917 64.4806 170.134 64.6907 170.314L62.7323 173.759C62.4321 173.518 61.8918 173.233 61.1115 172.903C60.3461 172.573 59.4907 172.408 58.5452 172.408C57.6898 172.408 56.9694 172.558 56.3841 172.858C55.7988 173.143 55.5062 173.579 55.5062 174.164C55.5062 174.749 55.8213 175.214 56.4517 175.559C57.082 175.905 57.9599 176.205 59.0855 176.46C60.0309 176.655 60.9614 176.955 61.8768 177.36C62.7923 177.751 63.5502 178.321 64.1505 179.071C64.7508 179.807 65.0509 180.79 65.0509 182.02C65.0509 183.236 64.7883 184.249 64.263 185.059C63.7528 185.855 63.0699 186.485 62.2145 186.95C61.3591 187.415 60.4211 187.746 59.4006 187.941C58.3801 188.136 57.3671 188.233 56.3616 188.233C55.056 188.233 53.9079 188.106 52.9174 187.851C51.9269 187.61 51.109 187.333 50.4637 187.018C49.8334 186.687 49.3832 186.41 49.113 186.185L51.0715 182.358C51.4617 182.703 52.0995 183.086 52.9849 183.506C53.8854 183.911 54.8534 184.114 55.8889 184.114C56.9694 184.114 57.8173 183.926 58.4326 183.551C59.0629 183.176 59.3781 182.673 59.3781 182.043C59.3781 181.577 59.228 181.202 58.9279 180.917C58.6277 180.617 58.215 180.369 57.6898 180.174C57.1645 179.979 56.5492 179.807 55.8439 179.657C55.1985 179.521 54.5382 179.326 53.8629 179.071C53.1875 178.801 52.5572 178.448 51.9719 178.013C51.3866 177.578 50.9139 177.038 50.5537 176.392C50.1936 175.732 50.0135 174.944 50.0135 174.029C50.0135 172.858 50.3887 171.883 51.139 171.102C51.8894 170.307 52.8649 169.707 54.0655 169.301C55.2661 168.881 56.5492 168.671 57.9149 168.671ZM73.309 179.724C73.354 180.564 73.5791 181.315 73.9843 181.975C74.3895 182.635 74.9748 183.153 75.7402 183.528C76.5206 183.904 77.451 184.091 78.5316 184.091C79.507 184.091 80.3625 183.971 81.0978 183.731C81.8482 183.491 82.4785 183.198 82.9888 182.853C83.514 182.493 83.9042 182.148 84.1594 181.818L86.523 185.329C86.1028 185.855 85.54 186.342 84.8347 186.793C84.1443 187.228 83.2589 187.573 82.1784 187.828C81.1128 188.098 79.7772 188.233 78.1714 188.233C76.1454 188.233 74.367 187.836 72.8362 187.04C71.3055 186.245 70.1124 185.097 69.257 183.596C68.4016 182.095 67.9738 180.309 67.9738 178.238C67.9738 176.437 68.3565 174.817 69.1219 173.376C69.8873 171.92 70.9978 170.772 72.4536 169.932C73.9243 169.091 75.6877 168.671 77.7437 168.671C79.6796 168.671 81.353 169.046 82.7637 169.797C84.1894 170.532 85.2924 171.613 86.0728 173.038C86.8532 174.464 87.2434 176.205 87.2434 178.261C87.2434 178.381 87.2359 178.629 87.2209 179.004C87.2209 179.364 87.2059 179.604 87.1758 179.724H73.309ZM81.8857 176.19C81.8707 175.71 81.7206 175.192 81.4355 174.637C81.1654 174.081 80.7377 173.609 80.1524 173.218C79.5671 172.828 78.7867 172.633 77.8112 172.633C76.8357 172.633 76.0328 172.821 75.4025 173.196C74.7872 173.571 74.322 174.036 74.0068 174.592C73.6917 175.132 73.5116 175.665 73.4666 176.19H81.8857ZM89.5061 169.211H92.8377V161.625H98.5106V169.211H102.878V173.961H98.5106V180.647C98.5106 181.532 98.6531 182.223 98.9383 182.718C99.2234 183.198 99.6736 183.438 100.289 183.438C100.754 183.438 101.137 183.348 101.437 183.168C101.737 182.973 101.917 182.838 101.977 182.763L104.003 186.86C103.913 186.95 103.621 187.108 103.125 187.333C102.645 187.558 102.022 187.761 101.257 187.941C100.507 188.136 99.6586 188.233 98.7132 188.233C97.0173 188.233 95.6141 187.746 94.5036 186.77C93.393 185.78 92.8377 184.249 92.8377 182.178V173.961H89.5061V169.211ZM124.325 162.953H116.874V157.978H137.382V162.953H129.953V187.693H124.325V162.953ZM146.671 188.233C144.705 188.233 142.949 187.813 141.403 186.973C139.873 186.132 138.672 184.984 137.802 183.528C136.931 182.058 136.496 180.384 136.496 178.508C136.496 176.633 136.931 174.959 137.802 173.488C138.672 172.003 139.873 170.832 141.403 169.977C142.949 169.106 144.705 168.671 146.671 168.671C148.652 168.671 150.4 169.106 151.916 169.977C153.432 170.832 154.617 172.003 155.473 173.488C156.328 174.959 156.756 176.633 156.756 178.508C156.756 180.384 156.328 182.058 155.473 183.528C154.617 184.984 153.432 186.132 151.916 186.973C150.4 187.813 148.652 188.233 146.671 188.233ZM146.671 183.483C147.617 183.483 148.434 183.273 149.125 182.853C149.83 182.418 150.37 181.825 150.746 181.075C151.136 180.309 151.331 179.446 151.331 178.486C151.331 177.525 151.136 176.663 150.746 175.897C150.37 175.132 149.83 174.531 149.125 174.096C148.434 173.646 147.617 173.421 146.671 173.421C145.726 173.421 144.9 173.646 144.195 174.096C143.504 174.531 142.964 175.132 142.574 175.897C142.184 176.663 141.989 177.525 141.989 178.486C141.989 179.446 142.184 180.309 142.574 181.075C142.964 181.825 143.504 182.418 144.195 182.853C144.9 183.273 145.726 183.483 146.671 183.483ZM172.705 169.211H179.278L170.251 178.036L180.088 187.693H173.358L165.681 179.972V187.693H159.964V156.718H165.681V175.987L172.705 169.211ZM185.645 179.724C185.69 180.564 185.915 181.315 186.32 181.975C186.725 182.635 187.311 183.153 188.076 183.528C188.856 183.904 189.787 184.091 190.867 184.091C191.843 184.091 192.698 183.971 193.434 183.731C194.184 183.491 194.814 183.198 195.325 182.853C195.85 182.493 196.24 182.148 196.495 181.818L198.859 185.329C198.439 185.855 197.876 186.342 197.171 186.793C196.48 187.228 195.595 187.573 194.514 187.828C193.449 188.098 192.113 188.233 190.507 188.233C188.481 188.233 186.703 187.836 185.172 187.04C183.641 186.245 182.448 185.097 181.593 183.596C180.737 182.095 180.31 180.309 180.31 178.238C180.31 176.437 180.692 174.817 181.458 173.376C182.223 171.92 183.334 170.772 184.789 169.932C186.26 169.091 188.024 168.671 190.08 168.671C192.016 168.671 193.689 169.046 195.1 169.797C196.525 170.532 197.628 171.613 198.409 173.038C199.189 174.464 199.579 176.205 199.579 178.261C199.579 178.381 199.572 178.629 199.557 179.004C199.557 179.364 199.542 179.604 199.512 179.724H185.645ZM194.222 176.19C194.207 175.71 194.057 175.192 193.771 174.637C193.501 174.081 193.074 173.609 192.488 173.218C191.903 172.828 191.123 172.633 190.147 172.633C189.172 172.633 188.369 172.821 187.738 173.196C187.123 173.571 186.658 174.036 186.343 174.592C186.028 175.132 185.847 175.665 185.802 176.19H194.222ZM215.214 168.671C216.474 168.671 217.705 168.934 218.905 169.459C220.106 169.969 221.089 170.787 221.854 171.913C222.635 173.038 223.025 174.509 223.025 176.325V187.693H217.285V177.315C217.285 175.8 216.924 174.674 216.204 173.939C215.499 173.203 214.568 172.836 213.413 172.836C212.662 172.836 211.942 173.046 211.252 173.466C210.576 173.871 210.021 174.441 209.586 175.177C209.166 175.897 208.955 176.723 208.955 177.653V187.693H203.238V169.211H208.955V172.16C209.121 171.65 209.496 171.125 210.081 170.585C210.666 170.044 211.409 169.594 212.31 169.234C213.21 168.859 214.178 168.671 215.214 168.671ZM227.783 187.693V169.211H233.478V187.693H227.783ZM230.709 164.439C229.764 164.439 228.961 164.109 228.301 163.448C227.655 162.788 227.333 162 227.333 161.085C227.333 160.169 227.663 159.374 228.323 158.699C228.983 158.023 229.779 157.686 230.709 157.686C231.325 157.686 231.887 157.843 232.398 158.158C232.908 158.459 233.321 158.864 233.636 159.374C233.951 159.884 234.109 160.455 234.109 161.085C234.109 162 233.771 162.788 233.096 163.448C232.435 164.109 231.64 164.439 230.709 164.439ZM238.094 169.211H255.563L245.635 183.618H254.932V187.693H236.698L246.626 173.263H238.094V169.211ZM272.963 187.693V184.474C272.828 184.804 272.483 185.269 271.927 185.87C271.372 186.47 270.622 187.018 269.676 187.513C268.746 187.993 267.65 188.233 266.39 188.233C264.619 188.233 263.05 187.813 261.685 186.973C260.319 186.117 259.246 184.954 258.466 183.483C257.7 181.998 257.318 180.324 257.318 178.463C257.318 176.603 257.7 174.937 258.466 173.466C259.246 171.98 260.319 170.81 261.685 169.954C263.05 169.099 264.619 168.671 266.39 168.671C267.62 168.671 268.686 168.881 269.586 169.301C270.502 169.707 271.237 170.187 271.792 170.742C272.362 171.282 272.73 171.77 272.895 172.205V169.211H278.568V187.693H272.963ZM262.923 178.463C262.923 179.499 263.155 180.414 263.621 181.21C264.086 181.99 264.701 182.598 265.467 183.033C266.232 183.468 267.065 183.686 267.965 183.686C268.911 183.686 269.751 183.468 270.487 183.033C271.222 182.583 271.8 181.968 272.22 181.187C272.655 180.392 272.873 179.484 272.873 178.463C272.873 177.443 272.655 176.542 272.22 175.762C271.8 174.967 271.222 174.344 270.487 173.894C269.751 173.443 268.911 173.218 267.965 173.218C267.065 173.218 266.232 173.443 265.467 173.894C264.701 174.329 264.086 174.944 263.621 175.74C263.155 176.52 262.923 177.428 262.923 178.463ZM281.686 169.211H285.018V161.625H290.691V169.211H295.058V173.961H290.691V180.647C290.691 181.532 290.833 182.223 291.118 182.718C291.403 183.198 291.854 183.438 292.469 183.438C292.934 183.438 293.317 183.348 293.617 183.168C293.917 182.973 294.097 182.838 294.157 182.763L296.183 186.86C296.093 186.95 295.801 187.108 295.305 187.333C294.825 187.558 294.202 187.761 293.437 187.941C292.687 188.136 291.839 188.233 290.893 188.233C289.197 188.233 287.794 187.746 286.684 186.77C285.573 185.78 285.018 184.249 285.018 182.178V173.961H281.686V169.211ZM299.361 187.693V169.211H305.057V187.693H299.361ZM302.288 164.439C301.342 164.439 300.539 164.109 299.879 163.448C299.234 162.788 298.911 162 298.911 161.085C298.911 160.169 299.241 159.374 299.902 158.699C300.562 158.023 301.357 157.686 302.288 157.686C302.903 157.686 303.466 157.843 303.976 158.158C304.486 158.459 304.899 158.864 305.214 159.374C305.529 159.884 305.687 160.455 305.687 161.085C305.687 162 305.349 162.788 304.674 163.448C304.014 164.109 303.218 164.439 302.288 164.439ZM319.33 188.233C317.364 188.233 315.608 187.813 314.062 186.973C312.531 186.132 311.331 184.984 310.46 183.528C309.59 182.058 309.155 180.384 309.155 178.508C309.155 176.633 309.59 174.959 310.46 173.488C311.331 172.003 312.531 170.832 314.062 169.977C315.608 169.106 317.364 168.671 319.33 168.671C321.311 168.671 323.059 169.106 324.575 169.977C326.091 170.832 327.276 172.003 328.132 173.488C328.987 174.959 329.415 176.633 329.415 178.508C329.415 180.384 328.987 182.058 328.132 183.528C327.276 184.984 326.091 186.132 324.575 186.973C323.059 187.813 321.311 188.233 319.33 188.233ZM319.33 183.483C320.275 183.483 321.093 183.273 321.783 182.853C322.489 182.418 323.029 181.825 323.404 181.075C323.794 180.309 323.99 179.446 323.99 178.486C323.99 177.525 323.794 176.663 323.404 175.897C323.029 175.132 322.489 174.531 321.783 174.096C321.093 173.646 320.275 173.421 319.33 173.421C318.384 173.421 317.559 173.646 316.854 174.096C316.163 174.531 315.623 175.132 315.233 175.897C314.843 176.663 314.647 177.525 314.647 178.486C314.647 179.446 314.843 180.309 315.233 181.075C315.623 181.825 316.163 182.418 316.854 182.853C317.559 183.273 318.384 183.483 319.33 183.483ZM345.048 168.671C346.309 168.671 347.54 168.934 348.74 169.459C349.941 169.969 350.924 170.787 351.689 171.913C352.47 173.038 352.86 174.509 352.86 176.325V187.693H347.119V177.315C347.119 175.8 346.759 174.674 346.039 173.939C345.334 173.203 344.403 172.836 343.247 172.836C342.497 172.836 341.777 173.046 341.086 173.466C340.411 173.871 339.856 174.441 339.421 175.177C339 175.897 338.79 176.723 338.79 177.653V187.693H333.072V169.211H338.79V172.16C338.955 171.65 339.331 171.125 339.916 170.585C340.501 170.044 341.244 169.594 342.144 169.234C343.045 168.859 344.013 168.671 345.048 168.671Z" fill="#D9D9D9"/>
<defs>
<linearGradient id="paint0_linear_0_221" x1="671.31" y1="105.652" x2="-0.0224721" y2="105.652" gradientUnits="userSpaceOnUse">
<stop offset="0.26" stop-color="#56C690"/>
<stop offset="1" stop-color="white"/>
</linearGradient>
</defs>
</svg>
