<svg width="856" height="143" viewBox="0 0 856 143" fill="none" xmlns="http://www.w3.org/2000/svg">
<path d="M18.7607 1.1202C21.6308 1.1202 24.1393 1.43521 26.286 2.06523C28.4328 2.69526 30.1595 3.36028 31.4662 4.06031C32.7729 4.76034 33.5663 5.22702 33.8463 5.46036L28.8061 13.8957C28.4328 13.6157 27.7911 13.2073 26.881 12.6706C25.9943 12.134 24.9326 11.6556 23.6959 11.2356C22.4825 10.8156 21.2108 10.6056 19.8808 10.6056C18.084 10.6056 16.6257 10.9322 15.5056 11.5856C14.4089 12.2156 13.8606 13.1607 13.8606 14.4207C13.8606 15.2841 14.1522 16.0658 14.7356 16.7658C15.3423 17.4425 16.2523 18.0958 17.4657 18.7259C18.7024 19.3326 20.2658 19.9976 22.1559 20.7209C23.8826 21.351 25.5043 22.0977 27.0211 22.961C28.5378 23.8244 29.8678 24.8511 31.0112 26.0412C32.1779 27.2079 33.0996 28.5612 33.7763 30.1013C34.453 31.6414 34.7914 33.3914 34.7914 35.3515C34.7914 37.6849 34.313 39.715 33.3563 41.4417C32.3996 43.1451 31.0929 44.5569 29.4361 45.6769C27.8027 46.7969 25.936 47.6253 23.8359 48.162C21.7592 48.722 19.6008 49.002 17.3607 49.002C14.1872 49.002 11.3405 48.6403 8.82036 47.917C6.32359 47.1936 4.30518 46.4119 2.76513 45.5719C1.22507 44.7319 0.303364 44.1718 1.95622e-05 43.8918L5.21522 35.1065C5.49523 35.3165 6.03192 35.6549 6.82528 36.1215C7.64198 36.5882 8.63368 37.0782 9.8004 37.5916C10.9671 38.0816 12.2038 38.5016 13.5105 38.8516C14.8406 39.2017 16.1473 39.3767 17.4307 39.3767C19.5774 39.3767 21.1875 38.9683 22.2609 38.1516C23.3342 37.3116 23.8709 36.2149 23.8709 34.8615C23.8709 33.8581 23.5326 32.9597 22.8559 32.1664C22.1792 31.373 21.1642 30.6263 19.8108 29.9263C18.4574 29.2029 16.7657 28.4446 14.7356 27.6512C12.7055 26.8345 10.8038 25.8428 9.03037 24.6761C7.2803 23.5094 5.85691 22.051 4.7602 20.3009C3.66349 18.5509 3.11514 16.3808 3.11514 13.7907C3.11514 11.2006 3.8385 8.9605 5.28522 7.07043C6.75528 5.15702 8.68035 3.68696 11.0604 2.66026C13.4639 1.63355 16.0306 1.1202 18.7607 1.1202ZM39.0564 19.4259H43.9566V7.63044H54.492V19.4259H60.9323V28.1762H54.492V36.1915C54.492 37.3816 54.667 38.35 55.017 39.0967C55.3671 39.82 56.0087 40.1817 56.9421 40.1817C57.5721 40.1817 58.1088 40.0417 58.5522 39.7617C58.9955 39.4817 59.2639 39.295 59.3572 39.2017L62.9973 46.7619C62.834 46.9019 62.3207 47.1586 61.4573 47.532C60.6173 47.9053 59.5439 48.2437 58.2372 48.547C56.9305 48.8504 55.4721 49.002 53.862 49.002C50.9919 49.002 48.6235 48.197 46.7567 46.5869C44.89 44.9535 43.9566 42.4451 43.9566 39.0616V28.1762H39.0564V19.4259ZM89.6081 48.162V43.5068C89.398 43.9735 88.8614 44.6502 87.998 45.5369C87.158 46.4236 86.0379 47.2286 84.6379 47.952C83.2378 48.652 81.6044 49.002 79.7377 49.002C76.9376 49.002 74.4875 48.3253 72.3874 46.972C70.2873 45.5952 68.6539 43.7635 67.4872 41.4767C66.3205 39.1667 65.7371 36.6116 65.7371 33.8114C65.7371 31.0113 66.3205 28.4679 67.4872 26.1812C68.6539 23.8711 70.2873 22.0277 72.3874 20.6509C74.4875 19.2742 76.9376 18.5859 79.7377 18.5859C81.5344 18.5859 83.1095 18.8775 84.4629 19.4609C85.8162 20.0209 86.913 20.6976 87.753 21.491C88.593 22.261 89.1764 22.9727 89.5031 23.6261V19.4259H100.073V48.162H89.6081ZM76.1675 33.8114C76.1675 35.1182 76.4709 36.2965 77.0776 37.3466C77.6843 38.3733 78.4893 39.1783 79.4927 39.7617C80.5194 40.345 81.6511 40.6367 82.8878 40.6367C84.1712 40.6367 85.3029 40.345 86.2829 39.7617C87.263 39.1783 88.033 38.3733 88.593 37.3466C89.1764 36.2965 89.468 35.1182 89.468 33.8114C89.468 32.5047 89.1764 31.338 88.593 30.3113C88.033 29.2613 87.263 28.4446 86.2829 27.8612C85.3029 27.2545 84.1712 26.9512 82.8878 26.9512C81.6511 26.9512 80.5194 27.2545 79.4927 27.8612C78.4893 28.4446 77.6843 29.2613 77.0776 30.3113C76.4709 31.338 76.1675 32.5047 76.1675 33.8114ZM116.931 48.162H106.29V19.4259H116.931V23.8711H116.756C116.942 23.3344 117.398 22.6577 118.121 21.841C118.844 21.001 119.859 20.2543 121.166 19.6009C122.473 18.9242 124.071 18.5859 125.961 18.5859C127.291 18.5859 128.516 18.7959 129.636 19.2159C130.756 19.6126 131.573 19.9976 132.086 20.3709L127.956 29.0163C127.63 28.6196 127.046 28.2112 126.206 27.7912C125.389 27.3479 124.363 27.1262 123.126 27.1262C121.703 27.1262 120.524 27.4879 119.591 28.2112C118.681 28.9346 118.004 29.8096 117.561 30.8363C117.141 31.863 116.931 32.8314 116.931 33.7414V48.162ZM133.701 19.4259H138.601V7.63044H149.136V19.4259H155.577V28.1762H149.136V36.1915C149.136 37.3816 149.311 38.35 149.661 39.0967C150.011 39.82 150.653 40.1817 151.586 40.1817C152.216 40.1817 152.753 40.0417 153.196 39.7617C153.64 39.4817 153.908 39.295 154.001 39.2017L157.642 46.7619C157.478 46.9019 156.965 47.1586 156.102 47.532C155.262 47.9053 154.188 48.2437 152.881 48.547C151.575 48.8504 150.116 49.002 148.506 49.002C145.636 49.002 143.268 48.197 141.401 46.5869C139.534 44.9535 138.601 42.4451 138.601 39.0616V28.1762H133.701V19.4259ZM181.208 1.96023H191.673V48.162H181.208V1.96023ZM219.945 18.5859C221.951 18.5859 223.911 18.9942 225.825 19.8109C227.738 20.6276 229.313 21.9227 230.55 23.6961C231.787 25.4461 232.405 27.7562 232.405 30.6263V48.162H221.73V32.3764C221.73 30.323 221.24 28.7829 220.26 27.7562C219.28 26.7062 217.996 26.1812 216.409 26.1812C215.359 26.1812 214.368 26.4612 213.434 27.0212C212.524 27.5579 211.778 28.3279 211.194 29.3313C210.634 30.3113 210.354 31.443 210.354 32.7264V48.162H199.714V19.4259H210.354V23.6611C210.634 22.891 211.218 22.121 212.104 21.351C213.014 20.5576 214.146 19.9042 215.499 19.3909C216.876 18.8542 218.358 18.5859 219.945 18.5859ZM236.373 19.4259H247.749L254.679 38.5016L261.644 19.4259H272.95L260.909 48.162H248.449L236.373 19.4259ZM286.091 36.0515C286.161 37.0782 286.488 37.9883 287.071 38.7816C287.655 39.575 288.46 40.205 289.486 40.6717C290.537 41.1151 291.773 41.3367 293.197 41.3367C294.55 41.3367 295.763 41.1967 296.837 40.9167C297.933 40.6367 298.879 40.2867 299.672 39.8667C300.489 39.4467 301.119 39.015 301.562 38.5716L305.692 45.1519C305.109 45.7819 304.28 46.4003 303.207 47.007C302.157 47.5903 300.769 48.0687 299.042 48.442C297.315 48.8154 295.133 49.002 292.497 49.002C289.323 49.002 286.5 48.407 284.026 47.217C281.553 46.0269 279.604 44.2768 278.181 41.9668C276.758 39.6567 276.046 36.8332 276.046 33.4964C276.046 30.6963 276.653 28.1762 277.866 25.9361C279.103 23.6727 280.888 21.8877 283.221 20.5809C285.555 19.2509 288.366 18.5859 291.657 18.5859C294.783 18.5859 297.49 19.1576 299.777 20.3009C302.087 21.4443 303.86 23.1477 305.097 25.4111C306.357 27.6512 306.987 30.4513 306.987 33.8114C306.987 33.9981 306.975 34.3715 306.952 34.9315C306.952 35.4915 306.929 35.8649 306.882 36.0515H286.091ZM296.977 30.4863C296.953 29.7396 296.755 29.0046 296.382 28.2812C296.008 27.5345 295.448 26.9279 294.702 26.4612C293.955 25.9711 292.998 25.7261 291.832 25.7261C290.665 25.7261 289.673 25.9595 288.856 26.4262C288.063 26.8695 287.456 27.4529 287.036 28.1762C286.616 28.8996 286.383 29.6696 286.336 30.4863H296.977ZM325.741 18.5859C327.631 18.5859 329.358 18.7492 330.921 19.0759C332.485 19.3792 333.791 19.7292 334.841 20.1259C335.915 20.5226 336.603 20.8493 336.907 21.106L333.441 27.3712C332.998 27.0445 332.17 26.6245 330.956 26.1112C329.766 25.5978 328.436 25.3411 326.966 25.3411C325.846 25.3411 324.901 25.5161 324.131 25.8661C323.361 26.1928 322.976 26.7178 322.976 27.4412C322.976 28.1646 323.396 28.7479 324.236 29.1913C325.099 29.6113 326.336 29.9846 327.946 30.3113C329.346 30.5913 330.77 31.0347 332.216 31.6414C333.663 32.2481 334.865 33.1464 335.822 34.3365C336.802 35.5032 337.292 37.0666 337.292 39.0266C337.292 41.0334 336.86 42.6901 335.997 43.9968C335.133 45.3036 333.99 46.3186 332.566 47.042C331.143 47.7653 329.603 48.267 327.946 48.547C326.289 48.8504 324.679 49.002 323.116 49.002C320.923 49.002 319.009 48.8037 317.376 48.407C315.766 48.0103 314.459 47.5553 313.456 47.042C312.452 46.5286 311.752 46.1203 311.356 45.8169L314.786 38.8166C315.392 39.33 316.384 39.9133 317.761 40.5667C319.138 41.1967 320.596 41.5117 322.136 41.5117C323.629 41.5117 324.784 41.2901 325.601 40.8467C326.418 40.4034 326.826 39.82 326.826 39.0967C326.826 38.5133 326.628 38.0466 326.231 37.6966C325.834 37.3466 325.274 37.0432 324.551 36.7866C323.828 36.5299 322.953 36.2965 321.926 36.0865C320.993 35.8999 320.001 35.6082 318.951 35.2115C317.901 34.8148 316.909 34.2781 315.976 33.6014C315.042 32.9014 314.284 32.0264 313.701 30.9763C313.117 29.9263 312.826 28.6546 312.826 27.1612C312.826 25.2478 313.444 23.6611 314.681 22.401C315.917 21.141 317.516 20.1959 319.476 19.5659C321.436 18.9125 323.524 18.5859 325.741 18.5859ZM340.386 19.4259H345.286V7.63044H355.822V19.4259H362.262V28.1762H355.822V36.1915C355.822 37.3816 355.997 38.35 356.347 39.0967C356.697 39.82 357.339 40.1817 358.272 40.1817C358.902 40.1817 359.439 40.0417 359.882 39.7617C360.325 39.4817 360.594 39.295 360.687 39.2017L364.327 46.7619C364.164 46.9019 363.651 47.1586 362.787 47.532C361.947 47.9053 360.874 48.2437 359.567 48.547C358.26 48.8504 356.802 49.002 355.192 49.002C352.322 49.002 349.953 48.197 348.087 46.5869C346.22 44.9535 345.286 42.4451 345.286 39.0616V28.1762H340.386V19.4259ZM368.992 48.162V19.4259H379.632V48.162H368.992ZM374.452 13.5107C372.772 13.5107 371.349 12.9273 370.182 11.7606C369.015 10.5706 368.432 9.15884 368.432 7.52544C368.432 5.89205 369.015 4.48033 370.182 3.29028C371.372 2.0769 372.796 1.47021 374.452 1.47021C375.549 1.47021 376.552 1.75022 377.462 2.31024C378.372 2.84693 379.107 3.57029 379.667 4.48033C380.228 5.39036 380.508 6.4054 380.508 7.52544C380.508 9.15884 379.913 10.5706 378.722 11.7606C377.532 12.9273 376.109 13.5107 374.452 13.5107ZM407.114 18.5859C409.121 18.5859 411.081 18.9942 412.994 19.8109C414.907 20.6276 416.483 21.9227 417.719 23.6961C418.956 25.4461 419.574 27.7562 419.574 30.6263V48.162H408.899V32.3764C408.899 30.323 408.409 28.7829 407.429 27.7562C406.449 26.7062 405.165 26.1812 403.579 26.1812C402.529 26.1812 401.537 26.4612 400.604 27.0212C399.694 27.5579 398.947 28.3279 398.364 29.3313C397.804 30.3113 397.523 31.443 397.523 32.7264V48.162H386.883V19.4259H397.523V23.6611C397.804 22.891 398.387 22.121 399.274 21.351C400.184 20.5576 401.315 19.9042 402.669 19.3909C404.045 18.8542 405.527 18.5859 407.114 18.5859ZM441.218 63.5276C439.211 63.5276 437.216 63.3526 435.233 63.0026C433.273 62.6526 431.441 62.0575 429.738 61.2175C428.034 60.3775 426.599 59.2224 425.433 57.7524L431.663 51.2771C432.199 51.9071 432.853 52.5255 433.623 53.1322C434.416 53.7389 435.385 54.2406 436.528 54.6372C437.695 55.0339 439.106 55.2323 440.763 55.2323C442.303 55.2323 443.645 54.9639 444.788 54.4272C445.932 53.8905 446.818 53.1089 447.448 52.0821C448.102 51.0554 448.428 49.8071 448.428 48.337V47.637H458.894V48.967C458.894 52.1405 458.1 54.8123 456.514 56.9823C454.95 59.1524 452.839 60.7858 450.178 61.8825C447.518 62.9792 444.532 63.5276 441.218 63.5276ZM448.428 48.162V43.5068C448.218 43.9735 447.682 44.6502 446.818 45.5369C445.978 46.4236 444.858 47.2286 443.458 47.952C442.058 48.652 440.425 49.002 438.558 49.002C435.758 49.002 433.308 48.3253 431.208 46.972C429.108 45.5952 427.474 43.7635 426.308 41.4767C425.141 39.1667 424.557 36.6116 424.557 33.8114C424.557 31.0113 425.141 28.4679 426.308 26.1812C427.474 23.8711 429.108 22.0277 431.208 20.6509C433.308 19.2742 435.758 18.5859 438.558 18.5859C440.355 18.5859 441.93 18.8775 443.283 19.4609C444.637 20.0209 445.733 20.6976 446.573 21.491C447.413 22.261 447.997 22.9727 448.323 23.6261V19.4259H458.894V48.162H448.428ZM434.988 33.8114C434.988 35.1182 435.291 36.2965 435.898 37.3466C436.505 38.3733 437.31 39.1783 438.313 39.7617C439.34 40.345 440.471 40.6367 441.708 40.6367C442.992 40.6367 444.123 40.345 445.103 39.7617C446.083 39.1783 446.853 38.3733 447.413 37.3466C447.997 36.2965 448.288 35.1182 448.288 33.8114C448.288 32.5047 447.997 31.338 447.413 30.3113C446.853 29.2613 446.083 28.4446 445.103 27.8612C444.123 27.2545 442.992 26.9512 441.708 26.9512C440.471 26.9512 439.34 27.2545 438.313 27.8612C437.31 28.4446 436.505 29.2613 435.898 30.3113C435.291 31.338 434.988 32.5047 434.988 33.8114ZM485.34 48.162V19.4259H495.981V48.162H485.34ZM490.8 13.5107C489.12 13.5107 487.697 12.9273 486.53 11.7606C485.364 10.5706 484.78 9.15884 484.78 7.52544C484.78 5.89205 485.364 4.48033 486.53 3.29028C487.72 2.0769 489.144 1.47021 490.8 1.47021C491.897 1.47021 492.901 1.75022 493.811 2.31024C494.721 2.84693 495.456 3.57029 496.016 4.48033C496.576 5.39036 496.856 6.4054 496.856 7.52544C496.856 9.15884 496.261 10.5706 495.071 11.7606C493.881 12.9273 492.457 13.5107 490.8 13.5107ZM523.462 18.5859C525.469 18.5859 527.429 18.9942 529.342 19.8109C531.256 20.6276 532.831 21.9227 534.067 23.6961C535.304 25.4461 535.923 27.7562 535.923 30.6263V48.162H525.247V32.3764C525.247 30.323 524.757 28.7829 523.777 27.7562C522.797 26.7062 521.514 26.1812 519.927 26.1812C518.877 26.1812 517.885 26.4612 516.952 27.0212C516.042 27.5579 515.295 28.3279 514.712 29.3313C514.152 30.3113 513.872 31.443 513.872 32.7264V48.162H503.231V19.4259H513.872V23.6611C514.152 22.891 514.735 22.121 515.622 21.351C516.532 20.5576 517.664 19.9042 519.017 19.3909C520.394 18.8542 521.875 18.5859 523.462 18.5859ZM630.678 91.1336H619.653V81.9633H652.134V91.1336H641.144V128.165H630.678V91.1336ZM667.188 129.005C664.038 129.005 661.238 128.363 658.787 127.08C656.361 125.773 654.447 123.988 653.047 121.725C651.671 119.438 650.982 116.825 650.982 113.885C650.982 110.944 651.671 108.331 653.047 106.044C654.447 103.734 656.361 101.914 658.787 100.584C661.238 99.2539 664.038 98.5889 667.188 98.5889C670.338 98.5889 673.115 99.2539 675.518 100.584C677.922 101.914 679.8 103.734 681.153 106.044C682.507 108.331 683.183 110.944 683.183 113.885C683.183 116.825 682.507 119.438 681.153 121.725C679.8 123.988 677.922 125.773 675.518 127.08C673.115 128.363 670.338 129.005 667.188 129.005ZM667.188 120.255C668.401 120.255 669.451 119.986 670.338 119.45C671.225 118.913 671.913 118.155 672.403 117.175C672.893 116.195 673.138 115.086 673.138 113.85C673.138 112.589 672.893 111.469 672.403 110.489C671.913 109.509 671.225 108.739 670.338 108.179C669.451 107.619 668.401 107.339 667.188 107.339C665.974 107.339 664.913 107.619 664.003 108.179C663.116 108.739 662.416 109.509 661.903 110.489C661.413 111.469 661.168 112.589 661.168 113.85C661.168 115.086 661.413 116.195 661.903 117.175C662.416 118.155 663.116 118.913 664.003 119.45C664.913 119.986 665.974 120.255 667.188 120.255ZM701.416 129.005C698.639 129.005 696.224 128.328 694.171 126.975C692.118 125.598 690.519 123.767 689.376 121.48C688.256 119.17 687.696 116.615 687.696 113.815C687.696 111.014 688.256 108.471 689.376 106.184C690.519 103.874 692.118 102.031 694.171 100.654C696.224 99.2773 698.639 98.5889 701.416 98.5889C703.26 98.5889 704.893 98.8806 706.316 99.464C707.74 100.024 708.895 100.701 709.782 101.494C710.668 102.264 711.205 102.976 711.392 103.629V80.0032H722.032V128.165H711.497V123.51C711.053 124.373 710.33 125.237 709.327 126.1C708.323 126.94 707.145 127.628 705.791 128.165C704.438 128.725 702.98 129.005 701.416 129.005ZM704.671 120.64C705.955 120.64 707.098 120.348 708.101 119.765C709.128 119.181 709.933 118.376 710.517 117.35C711.1 116.3 711.392 115.121 711.392 113.815C711.392 112.508 711.1 111.341 710.517 110.314C709.933 109.264 709.128 108.448 708.101 107.864C707.098 107.258 705.955 106.954 704.671 106.954C703.435 106.954 702.315 107.258 701.311 107.864C700.331 108.448 699.549 109.264 698.966 110.314C698.406 111.341 698.126 112.508 698.126 113.815C698.126 115.121 698.406 116.3 698.966 117.35C699.549 118.376 700.331 119.181 701.311 119.765C702.315 120.348 703.435 120.64 704.671 120.64ZM750.87 128.165V123.51C750.66 123.977 750.123 124.653 749.26 125.54C748.42 126.427 747.3 127.232 745.899 127.955C744.499 128.655 742.866 129.005 740.999 129.005C738.199 129.005 735.749 128.328 733.649 126.975C731.549 125.598 729.916 123.767 728.749 121.48C727.582 119.17 726.999 116.615 726.999 113.815C726.999 111.014 727.582 108.471 728.749 106.184C729.916 103.874 731.549 102.031 733.649 100.654C735.749 99.2773 738.199 98.5889 740.999 98.5889C742.796 98.5889 744.371 98.8806 745.724 99.464C747.078 100.024 748.175 100.701 749.015 101.494C749.855 102.264 750.438 102.976 750.765 103.629V99.429H761.335V128.165H750.87ZM737.429 113.815C737.429 115.121 737.732 116.3 738.339 117.35C738.946 118.376 739.751 119.181 740.754 119.765C741.781 120.348 742.913 120.64 744.149 120.64C745.433 120.64 746.564 120.348 747.545 119.765C748.525 119.181 749.295 118.376 749.855 117.35C750.438 116.3 750.73 115.121 750.73 113.815C750.73 112.508 750.438 111.341 749.855 110.314C749.295 109.264 748.525 108.448 747.545 107.864C746.564 107.258 745.433 106.954 744.149 106.954C742.913 106.954 741.781 107.258 740.754 107.864C739.751 108.448 738.946 109.264 738.339 110.314C737.732 111.341 737.429 112.508 737.429 113.815ZM782.953 118.96L790.723 99.429H801.153L781.413 142.726H770.772L777.422 128.165L765.417 99.429H776.022L782.953 118.96ZM808.469 113.079L806.299 80.0032H817.779L815.609 113.079H808.469ZM812.004 129.005C810.861 129.005 809.811 128.725 808.854 128.165C807.897 127.582 807.127 126.812 806.544 125.855C805.961 124.898 805.669 123.837 805.669 122.67C805.669 120.896 806.287 119.38 807.524 118.12C808.784 116.86 810.277 116.23 812.004 116.23C813.801 116.23 815.318 116.86 816.554 118.12C817.791 119.38 818.409 120.896 818.409 122.67C818.409 124.397 817.791 125.89 816.554 127.15C815.318 128.387 813.801 129.005 812.004 129.005Z" fill="white"/>
<path d="M569.957 11.1306H558.932V1.96023H591.413V11.1306H580.423V48.162H569.957V11.1306ZM606.467 49.002C603.317 49.002 600.516 48.3603 598.066 47.077C595.64 45.7702 593.726 43.9852 592.326 41.7218C590.949 39.435 590.261 36.8216 590.261 33.8815C590.261 30.9413 590.949 28.3279 592.326 26.0412C593.726 23.7311 595.64 21.911 598.066 20.5809C600.516 19.2509 603.317 18.5859 606.467 18.5859C609.617 18.5859 612.394 19.2509 614.797 20.5809C617.2 21.911 619.079 23.7311 620.432 26.0412C621.786 28.3279 622.462 30.9413 622.462 33.8815C622.462 36.8216 621.786 39.435 620.432 41.7218C619.079 43.9852 617.2 45.7702 614.797 47.077C612.394 48.3603 609.617 49.002 606.467 49.002ZM606.467 40.2517C607.68 40.2517 608.73 39.9834 609.617 39.4467C610.504 38.91 611.192 38.1516 611.682 37.1716C612.172 36.1915 612.417 35.0832 612.417 33.8464C612.417 32.5864 612.172 31.4664 611.682 30.4863C611.192 29.5063 610.504 28.7363 609.617 28.1762C608.73 27.6162 607.68 27.3362 606.467 27.3362C605.253 27.3362 604.192 27.6162 603.282 28.1762C602.395 28.7363 601.695 29.5063 601.182 30.4863C600.691 31.4664 600.446 32.5864 600.446 33.8464C600.446 35.0832 600.691 36.1915 601.182 37.1716C601.695 38.1516 602.395 38.91 603.282 39.4467C604.192 39.9834 605.253 40.2517 606.467 40.2517ZM647.975 19.4259H660.016L646.47 33.1464L661.416 48.162H649.095L638 36.6116V48.162H627.36V0.00015462H638V29.4363L647.975 19.4259ZM671.743 36.0515C671.813 37.0782 672.139 37.9883 672.723 38.7816C673.306 39.575 674.111 40.205 675.138 40.6717C676.188 41.1151 677.425 41.3367 678.848 41.3367C680.201 41.3367 681.415 41.1967 682.488 40.9167C683.585 40.6367 684.53 40.2867 685.323 39.8667C686.14 39.4467 686.77 39.015 687.213 38.5716L691.344 45.1519C690.76 45.7819 689.932 46.4003 688.858 47.007C687.808 47.5903 686.42 48.0687 684.693 48.442C682.967 48.8154 680.785 49.002 678.148 49.002C674.975 49.002 672.151 48.407 669.678 47.217C667.204 46.0269 665.256 44.2768 663.832 41.9668C662.409 39.6567 661.697 36.8332 661.697 33.4964C661.697 30.6963 662.304 28.1762 663.517 25.9361C664.754 23.6727 666.539 21.8877 668.873 20.5809C671.206 19.2509 674.018 18.5859 677.308 18.5859C680.435 18.5859 683.142 19.1576 685.428 20.3009C687.738 21.4443 689.512 23.1477 690.749 25.4111C692.009 27.6512 692.639 30.4513 692.639 33.8114C692.639 33.9981 692.627 34.3715 692.604 34.9315C692.604 35.4915 692.58 35.8649 692.534 36.0515H671.743ZM682.628 30.4863C682.605 29.7396 682.407 29.0046 682.033 28.2812C681.66 27.5345 681.1 26.9279 680.353 26.4612C679.606 25.9711 678.65 25.7261 677.483 25.7261C676.316 25.7261 675.325 25.9595 674.508 26.4262C673.715 26.8695 673.108 27.4529 672.688 28.1762C672.268 28.8996 672.034 29.6696 671.988 30.4863H682.628ZM718.288 18.5859C720.295 18.5859 722.255 18.9942 724.168 19.8109C726.081 20.6276 727.657 21.9227 728.893 23.6961C730.13 25.4461 730.748 27.7562 730.748 30.6263V48.162H720.073V32.3764C720.073 30.323 719.583 28.7829 718.603 27.7562C717.623 26.7062 716.339 26.1812 714.753 26.1812C713.703 26.1812 712.711 26.4612 711.778 27.0212C710.868 27.5579 710.121 28.3279 709.538 29.3313C708.978 30.3113 708.697 31.443 708.697 32.7264V48.162H698.057V19.4259H708.697V23.6611C708.978 22.891 709.561 22.121 710.448 21.351C711.358 20.5576 712.489 19.9042 713.843 19.3909C715.219 18.8542 716.701 18.5859 718.288 18.5859ZM737.657 48.162V19.4259H748.297V48.162H737.657ZM743.117 13.5107C741.437 13.5107 740.013 12.9273 738.847 11.7606C737.68 10.5706 737.097 9.15884 737.097 7.52544C737.097 5.89205 737.68 4.48033 738.847 3.29028C740.037 2.0769 741.46 1.47021 743.117 1.47021C744.213 1.47021 745.217 1.75022 746.127 2.31024C747.037 2.84693 747.772 3.57029 748.332 4.48033C748.892 5.39036 749.172 6.4054 749.172 7.52544C749.172 9.15884 748.577 10.5706 747.387 11.7606C746.197 12.9273 744.774 13.5107 743.117 13.5107ZM755.233 19.4259H783.689L769.338 40.7417H782.569V48.162H752.922L767.238 26.8112H755.233V19.4259ZM796.294 36.0515C796.364 37.0782 796.691 37.9883 797.274 38.7816C797.858 39.575 798.663 40.205 799.69 40.6717C800.74 41.1151 801.976 41.3367 803.4 41.3367C804.753 41.3367 805.966 41.1967 807.04 40.9167C808.137 40.6367 809.082 40.2867 809.875 39.8667C810.692 39.4467 811.322 39.015 811.765 38.5716L815.895 45.1519C815.312 45.7819 814.483 46.4003 813.41 47.007C812.36 47.5903 810.972 48.0687 809.245 48.442C807.518 48.8154 805.336 49.002 802.7 49.002C799.526 49.002 796.703 48.407 794.229 47.217C791.756 46.0269 789.808 44.2768 788.384 41.9668C786.961 39.6567 786.249 36.8332 786.249 33.4964C786.249 30.6963 786.856 28.1762 788.069 25.9361C789.306 23.6727 791.091 21.8877 793.424 20.5809C795.758 19.2509 798.57 18.5859 801.86 18.5859C804.986 18.5859 807.693 19.1576 809.98 20.3009C812.29 21.4443 814.063 23.1477 815.3 25.4111C816.56 27.6512 817.19 30.4513 817.19 33.8114C817.19 33.9981 817.179 34.3715 817.155 34.9315C817.155 35.4915 817.132 35.8649 817.085 36.0515H796.294ZM807.18 30.4863C807.157 29.7396 806.958 29.0046 806.585 28.2812C806.211 27.5345 805.651 26.9279 804.905 26.4612C804.158 25.9711 803.201 25.7261 802.035 25.7261C800.868 25.7261 799.876 25.9595 799.06 26.4262C798.266 26.8695 797.659 27.4529 797.239 28.1762C796.819 28.8996 796.586 29.6696 796.539 30.4863H807.18ZM835.384 49.002C832.607 49.002 830.192 48.3253 828.139 46.972C826.086 45.5952 824.487 43.7635 823.344 41.4767C822.224 39.1667 821.664 36.6116 821.664 33.8114C821.664 31.0113 822.224 28.4679 823.344 26.1812C824.487 23.8711 826.086 22.0277 828.139 20.6509C830.192 19.2742 832.607 18.5859 835.384 18.5859C837.228 18.5859 838.861 18.8775 840.284 19.4609C841.708 20.0209 842.863 20.6976 843.75 21.491C844.636 22.261 845.173 22.9727 845.36 23.6261V0.00015462H856V48.162H845.465V43.5068C845.021 44.3702 844.298 45.2336 843.295 46.0969C842.291 46.937 841.113 47.6253 839.759 48.162C838.406 48.722 836.948 49.002 835.384 49.002ZM838.639 40.6367C839.923 40.6367 841.066 40.345 842.069 39.7617C843.096 39.1783 843.901 38.3733 844.485 37.3466C845.068 36.2965 845.36 35.1182 845.36 33.8114C845.36 32.5047 845.068 31.338 844.485 30.3113C843.901 29.2613 843.096 28.4446 842.069 27.8612C841.066 27.2545 839.923 26.9512 838.639 26.9512C837.403 26.9512 836.283 27.2545 835.279 27.8612C834.299 28.4446 833.517 29.2613 832.934 30.3113C832.374 31.338 832.094 32.5047 832.094 33.8114C832.094 35.1182 832.374 36.2965 832.934 37.3466C833.517 38.3733 834.299 39.1783 835.279 39.7617C836.283 40.345 837.403 40.6367 838.639 40.6367ZM38.1325 81.9633H56.9632C59.6466 81.9633 62.0384 82.5233 64.1385 83.6434C66.2386 84.7634 67.8953 86.3851 69.1087 88.5085C70.3454 90.6086 70.9638 93.117 70.9638 96.0338C70.9638 98.9506 70.4387 101.342 69.3887 103.209C68.362 105.053 67.1253 106.441 65.6785 107.374C64.2318 108.284 62.8901 108.833 61.6534 109.019L72.8888 128.165H61.1284L51.118 109.824H48.5979V128.165H38.1325V81.9633ZM48.5979 102.579H53.2181C55.0848 102.579 56.7182 102.124 58.1183 101.214C59.5183 100.304 60.2183 98.6939 60.2183 96.3838C60.2183 94.0737 59.53 92.4754 58.1533 91.5887C56.7765 90.6786 55.1548 90.2236 53.2881 90.2236H48.5979V102.579ZM88.6502 116.055C88.7202 117.081 89.0469 117.991 89.6302 118.785C90.2136 119.578 91.0186 120.208 92.0453 120.675C93.0954 121.118 94.3321 121.34 95.7555 121.34C97.1089 121.34 98.3222 121.2 99.3956 120.92C100.492 120.64 101.437 120.29 102.231 119.87C103.047 119.45 103.677 119.018 104.121 118.575L108.251 125.155C107.668 125.785 106.839 126.403 105.766 127.01C104.716 127.593 103.327 128.072 101.601 128.445C99.874 128.818 97.6922 129.005 95.0554 129.005C91.882 129.005 89.0586 128.41 86.5851 127.22C84.1117 126.03 82.1633 124.28 80.7399 121.97C79.3165 119.66 78.6048 116.836 78.6048 113.499C78.6048 110.699 79.2115 108.179 80.4249 105.939C81.6616 103.676 83.4467 101.891 85.7801 100.584C88.1135 99.2539 90.9253 98.5889 94.2154 98.5889C97.3422 98.5889 100.049 99.1606 102.336 100.304C104.646 101.447 106.419 103.151 107.656 105.414C108.916 107.654 109.546 110.454 109.546 113.815C109.546 114.001 109.534 114.375 109.511 114.935C109.511 115.495 109.488 115.868 109.441 116.055H88.6502ZM99.5356 110.489C99.5123 109.743 99.3139 109.008 98.9406 108.284C98.5673 107.538 98.0072 106.931 97.2605 106.464C96.5138 105.974 95.5571 105.729 94.3904 105.729C93.2237 105.729 92.232 105.963 91.4153 106.429C90.6219 106.873 90.0153 107.456 89.5952 108.179C89.1752 108.903 88.9419 109.673 88.8952 110.489H99.5356ZM137.715 128.165V123.51C137.505 123.977 136.969 124.653 136.105 125.54C135.265 126.427 134.145 127.232 132.745 127.955C131.345 128.655 129.712 129.005 127.845 129.005C125.045 129.005 122.595 128.328 120.495 126.975C118.395 125.598 116.761 123.767 115.595 121.48C114.428 119.17 113.844 116.615 113.844 113.815C113.844 111.014 114.428 108.471 115.595 106.184C116.761 103.874 118.395 102.031 120.495 100.654C122.595 99.2773 125.045 98.5889 127.845 98.5889C129.642 98.5889 131.217 98.8806 132.57 99.464C133.924 100.024 135.02 100.701 135.86 101.494C136.7 102.264 137.284 102.976 137.61 103.629V99.429H148.181V128.165H137.715ZM124.275 113.815C124.275 115.121 124.578 116.3 125.185 117.35C125.792 118.376 126.597 119.181 127.6 119.765C128.627 120.348 129.758 120.64 130.995 120.64C132.278 120.64 133.41 120.348 134.39 119.765C135.37 119.181 136.14 118.376 136.7 117.35C137.284 116.3 137.575 115.121 137.575 113.815C137.575 112.508 137.284 111.341 136.7 110.314C136.14 109.264 135.37 108.448 134.39 107.864C133.41 107.258 132.278 106.954 130.995 106.954C129.758 106.954 128.627 107.258 127.6 107.864C126.597 108.448 125.792 109.264 125.185 110.314C124.578 111.341 124.275 112.508 124.275 113.815ZM165.948 128.165H155.273V80.0032H165.948V128.165ZM173.953 116.755V107.724H191.979V116.755H173.953ZM247.301 128.165H234.736L226.896 95.9288H228.786L220.945 128.165H208.31L197.774 81.9633H209.78L215.345 114.375H215.205L223.885 81.9633H231.761L240.476 114.375H240.336L245.901 81.9633H257.907L247.301 128.165ZM276.819 129.005C273.669 129.005 270.869 128.363 268.419 127.08C265.992 125.773 264.079 123.988 262.679 121.725C261.302 119.438 260.614 116.825 260.614 113.885C260.614 110.944 261.302 108.331 262.679 106.044C264.079 103.734 265.992 101.914 268.419 100.584C270.869 99.2539 273.669 98.5889 276.819 98.5889C279.969 98.5889 282.746 99.2539 285.15 100.584C287.553 101.914 289.431 103.734 290.785 106.044C292.138 108.331 292.815 110.944 292.815 113.885C292.815 116.825 292.138 119.438 290.785 121.725C289.431 123.988 287.553 125.773 285.15 127.08C282.746 128.363 279.969 129.005 276.819 129.005ZM276.819 120.255C278.033 120.255 279.083 119.986 279.969 119.45C280.856 118.913 281.545 118.155 282.035 117.175C282.525 116.195 282.77 115.086 282.77 113.85C282.77 112.589 282.525 111.469 282.035 110.489C281.545 109.509 280.856 108.739 279.969 108.179C279.083 107.619 278.033 107.339 276.819 107.339C275.606 107.339 274.544 107.619 273.634 108.179C272.748 108.739 272.048 109.509 271.534 110.489C271.044 111.469 270.799 112.589 270.799 113.85C270.799 115.086 271.044 116.195 271.534 117.175C272.048 118.155 272.748 118.913 273.634 119.45C274.544 119.986 275.606 120.255 276.819 120.255ZM308.458 128.165H297.817V99.429H308.458V103.874H308.283C308.469 103.337 308.924 102.661 309.648 101.844C310.371 101.004 311.386 100.257 312.693 99.604C314 98.9273 315.598 98.5889 317.488 98.5889C318.818 98.5889 320.043 98.7989 321.163 99.2189C322.283 99.6156 323.1 100.001 323.613 100.374L319.483 109.019C319.156 108.623 318.573 108.214 317.733 107.794C316.916 107.351 315.89 107.129 314.653 107.129C313.23 107.129 312.051 107.491 311.118 108.214C310.208 108.938 309.531 109.813 309.088 110.839C308.668 111.866 308.458 112.834 308.458 113.745V128.165ZM337.498 128.165H326.822V80.0032H337.498V128.165ZM357.053 129.005C354.277 129.005 351.862 128.328 349.808 126.975C347.755 125.598 346.156 123.767 345.013 121.48C343.893 119.17 343.333 116.615 343.333 113.815C343.333 111.014 343.893 108.471 345.013 106.184C346.156 103.874 347.755 102.031 349.808 100.654C351.862 99.2773 354.277 98.5889 357.053 98.5889C358.897 98.5889 360.53 98.8806 361.954 99.464C363.377 100.024 364.532 100.701 365.419 101.494C366.305 102.264 366.842 102.976 367.029 103.629V80.0032H377.669V128.165H367.134V123.51C366.69 124.373 365.967 125.237 364.964 126.1C363.96 126.94 362.782 127.628 361.429 128.165C360.075 128.725 358.617 129.005 357.053 129.005ZM360.309 120.64C361.592 120.64 362.735 120.348 363.739 119.765C364.765 119.181 365.57 118.376 366.154 117.35C366.737 116.3 367.029 115.121 367.029 113.815C367.029 112.508 366.737 111.341 366.154 110.314C365.57 109.264 364.765 108.448 363.739 107.864C362.735 107.258 361.592 106.954 360.309 106.954C359.072 106.954 357.952 107.258 356.948 107.864C355.968 108.448 355.187 109.264 354.603 110.314C354.043 111.341 353.763 112.508 353.763 113.815C353.763 115.121 354.043 116.3 354.603 117.35C355.187 118.376 355.968 119.181 356.948 119.765C357.952 120.348 359.072 120.64 360.309 120.64ZM418.058 81.9633H428.453L446.689 128.165H435.523L432.163 118.89H414.383L410.987 128.165H399.787L418.058 81.9633ZM417.883 109.719H428.698L423.343 94.5638H423.238L417.883 109.719ZM463.674 98.5889C465.564 98.5889 467.291 98.7523 468.854 99.0789C470.418 99.3823 471.724 99.7323 472.774 100.129C473.848 100.526 474.536 100.852 474.84 101.109L471.374 107.374C470.931 107.048 470.103 106.628 468.889 106.114C467.699 105.601 466.369 105.344 464.899 105.344C463.779 105.344 462.834 105.519 462.064 105.869C461.294 106.196 460.909 106.721 460.909 107.444C460.909 108.168 461.329 108.751 462.169 109.194C463.032 109.614 464.269 109.988 465.879 110.314C467.279 110.594 468.703 111.038 470.149 111.644C471.596 112.251 472.798 113.149 473.755 114.34C474.735 115.506 475.225 117.07 475.225 119.03C475.225 121.036 474.793 122.693 473.93 124C473.066 125.307 471.923 126.322 470.499 127.045C469.076 127.768 467.536 128.27 465.879 128.55C464.223 128.853 462.612 129.005 461.049 129.005C458.856 129.005 456.942 128.807 455.309 128.41C453.699 128.013 452.392 127.558 451.389 127.045C450.385 126.532 449.685 126.123 449.289 125.82L452.719 118.82C453.325 119.333 454.317 119.916 455.694 120.57C457.071 121.2 458.529 121.515 460.069 121.515C461.562 121.515 462.717 121.293 463.534 120.85C464.351 120.406 464.759 119.823 464.759 119.1C464.759 118.516 464.561 118.05 464.164 117.7C463.767 117.35 463.207 117.046 462.484 116.79C461.761 116.533 460.886 116.3 459.859 116.09C458.926 115.903 457.934 115.611 456.884 115.215C455.834 114.818 454.842 114.281 453.909 113.604C452.975 112.904 452.217 112.029 451.634 110.979C451.05 109.929 450.759 108.658 450.759 107.164C450.759 105.251 451.377 103.664 452.614 102.404C453.85 101.144 455.449 100.199 457.409 99.569C459.369 98.9156 461.457 98.5889 463.674 98.5889ZM494.128 98.5889C496.019 98.5889 497.745 98.7523 499.309 99.0789C500.872 99.3823 502.179 99.7323 503.229 100.129C504.302 100.526 504.991 100.852 505.294 101.109L501.829 107.374C501.385 107.048 500.557 106.628 499.344 106.114C498.154 105.601 496.824 105.344 495.353 105.344C494.233 105.344 493.288 105.519 492.518 105.869C491.748 106.196 491.363 106.721 491.363 107.444C491.363 108.168 491.783 108.751 492.623 109.194C493.487 109.614 494.723 109.988 496.334 110.314C497.734 110.594 499.157 111.038 500.604 111.644C502.05 112.251 503.252 113.149 504.209 114.34C505.189 115.506 505.679 117.07 505.679 119.03C505.679 121.036 505.247 122.693 504.384 124C503.52 125.307 502.377 126.322 500.954 127.045C499.53 127.768 497.99 128.27 496.334 128.55C494.677 128.853 493.067 129.005 491.503 129.005C489.31 129.005 487.397 128.807 485.763 128.41C484.153 128.013 482.846 127.558 481.843 127.045C480.84 126.532 480.14 126.123 479.743 125.82L483.173 118.82C483.78 119.333 484.771 119.916 486.148 120.57C487.525 121.2 488.983 121.515 490.523 121.515C492.017 121.515 493.172 121.293 493.988 120.85C494.805 120.406 495.213 119.823 495.213 119.1C495.213 118.516 495.015 118.05 494.618 117.7C494.222 117.35 493.662 117.046 492.938 116.79C492.215 116.533 491.34 116.3 490.313 116.09C489.38 115.903 488.388 115.611 487.338 115.215C486.288 114.818 485.296 114.281 484.363 113.604C483.43 112.904 482.671 112.029 482.088 110.979C481.505 109.929 481.213 108.658 481.213 107.164C481.213 105.251 481.831 103.664 483.068 102.404C484.305 101.144 485.903 100.199 487.863 99.569C489.823 98.9156 491.912 98.5889 494.128 98.5889ZM520.173 116.055C520.243 117.081 520.569 117.991 521.153 118.785C521.736 119.578 522.541 120.208 523.568 120.675C524.618 121.118 525.854 121.34 527.278 121.34C528.631 121.34 529.845 121.2 530.918 120.92C532.015 120.64 532.96 120.29 533.753 119.87C534.57 119.45 535.2 119.018 535.643 118.575L539.773 125.155C539.19 125.785 538.362 126.403 537.288 127.01C536.238 127.593 534.85 128.072 533.123 128.445C531.396 128.818 529.215 129.005 526.578 129.005C523.404 129.005 520.581 128.41 518.107 127.22C515.634 126.03 513.686 124.28 512.262 121.97C510.839 119.66 510.127 116.836 510.127 113.499C510.127 110.699 510.734 108.179 511.947 105.939C513.184 103.676 514.969 101.891 517.302 100.584C519.636 99.2539 522.448 98.5889 525.738 98.5889C528.865 98.5889 531.571 99.1606 533.858 100.304C536.168 101.447 537.942 103.151 539.178 105.414C540.438 107.654 541.068 110.454 541.068 113.815C541.068 114.001 541.057 114.375 541.033 114.935C541.033 115.495 541.01 115.868 540.963 116.055H520.173ZM531.058 110.489C531.035 109.743 530.836 109.008 530.463 108.284C530.09 107.538 529.53 106.931 528.783 106.464C528.036 105.974 527.079 105.729 525.913 105.729C524.746 105.729 523.754 105.963 522.938 106.429C522.144 106.873 521.538 107.456 521.118 108.179C520.698 108.903 520.464 109.673 520.418 110.489H531.058ZM544.492 99.429H549.392V87.6335H559.927V99.429H566.368V108.179H559.927V116.195C559.927 117.385 560.102 118.353 560.452 119.1C560.802 119.823 561.444 120.185 562.377 120.185C563.007 120.185 563.544 120.045 563.988 119.765C564.431 119.485 564.699 119.298 564.793 119.205L568.433 126.765C568.269 126.905 567.756 127.162 566.893 127.535C566.053 127.908 564.979 128.247 563.673 128.55C562.366 128.853 560.907 129.005 559.297 129.005C556.427 129.005 554.059 128.2 552.192 126.59C550.325 124.957 549.392 122.448 549.392 119.065V108.179H544.492V99.429ZM585.628 98.5889C587.518 98.5889 589.245 98.7523 590.808 99.0789C592.372 99.3823 593.678 99.7323 594.728 100.129C595.802 100.526 596.49 100.852 596.793 101.109L593.328 107.374C592.885 107.048 592.057 106.628 590.843 106.114C589.653 105.601 588.323 105.344 586.853 105.344C585.733 105.344 584.788 105.519 584.018 105.869C583.248 106.196 582.863 106.721 582.863 107.444C582.863 108.168 583.283 108.751 584.123 109.194C584.986 109.614 586.223 109.988 587.833 110.314C589.233 110.594 590.657 111.038 592.103 111.644C593.55 112.251 594.752 113.149 595.708 114.34C596.688 115.506 597.178 117.07 597.178 119.03C597.178 121.036 596.747 122.693 595.883 124C595.02 125.307 593.877 126.322 592.453 127.045C591.03 127.768 589.49 128.27 587.833 128.55C586.176 128.853 584.566 129.005 583.003 129.005C580.81 129.005 578.896 128.807 577.263 128.41C575.653 128.013 574.346 127.558 573.343 127.045C572.339 126.532 571.639 126.123 571.242 125.82L574.673 118.82C575.279 119.333 576.271 119.916 577.648 120.57C579.024 121.2 580.483 121.515 582.023 121.515C583.516 121.515 584.671 121.293 585.488 120.85C586.305 120.406 586.713 119.823 586.713 119.1C586.713 118.516 586.515 118.05 586.118 117.7C585.721 117.35 585.161 117.046 584.438 116.79C583.715 116.533 582.84 116.3 581.813 116.09C580.88 115.903 579.888 115.611 578.838 115.215C577.788 114.818 576.796 114.281 575.863 113.604C574.929 112.904 574.171 112.029 573.588 110.979C573.004 109.929 572.713 108.658 572.713 107.164C572.713 105.251 573.331 103.664 574.568 102.404C575.804 101.144 577.403 100.199 579.363 99.569C581.323 98.9156 583.411 98.5889 585.628 98.5889Z" fill="url(#paint0_linear_19_72)"/>
<defs>
<linearGradient id="paint0_linear_19_72" x1="931.33" y1="71.1629" x2="-72.7083" y2="71.1629" gradientUnits="userSpaceOnUse">
<stop offset="0.26" stop-color="#56C690"/>
<stop offset="1" stop-color="white"/>
</linearGradient>
</defs>
</svg>
